<mxfile host="app.diagrams.net" modified="2022-06-28T19:19:03.484Z" agent="5.0 (Windows NT 10.0; Win64; x64) AppleWebKit/537.36 (KHTML, like Gecko) Chrome/103.0.5060.53 Safari/537.36 Edg/103.0.1264.37" etag="Bo2poKlGUi1C46o5VA8n" version="20.0.3" type="github">
  <diagram id="E-QxbQnlYTsidjUF0iCX" name="Page-1">
    <mxGraphModel dx="2062" dy="1154" grid="0" gridSize="10" guides="1" tooltips="1" connect="1" arrows="1" fold="1" page="1" pageScale="1" pageWidth="827" pageHeight="1169" math="0" shadow="0">
      <root>
        <mxCell id="0" />
        <mxCell id="1" parent="0" />
        <mxCell id="JMNptI0SkTSTvYcWqJ-m-1" value="&lt;font face=&quot;Times New Roman&quot;&gt;Conv Layer&lt;/font&gt;" style="rounded=0;whiteSpace=wrap;html=1;" vertex="1" parent="1">
          <mxGeometry x="140" y="340" width="70" height="20" as="geometry" />
        </mxCell>
        <mxCell id="JMNptI0SkTSTvYcWqJ-m-2" value="&lt;font face=&quot;Times New Roman&quot;&gt;Global pooling&lt;/font&gt;" style="rounded=0;whiteSpace=wrap;html=1;" vertex="1" parent="1">
          <mxGeometry x="250" y="303.5" width="90" height="20" as="geometry" />
        </mxCell>
        <mxCell id="JMNptI0SkTSTvYcWqJ-m-3" value="&lt;font face=&quot;Times New Roman&quot;&gt;FC&lt;/font&gt;" style="rounded=0;whiteSpace=wrap;html=1;" vertex="1" parent="1">
          <mxGeometry x="360" y="303.5" width="40" height="20" as="geometry" />
        </mxCell>
        <mxCell id="JMNptI0SkTSTvYcWqJ-m-31" style="edgeStyle=orthogonalEdgeStyle;rounded=0;orthogonalLoop=1;jettySize=auto;html=1;exitX=1;exitY=0.5;exitDx=0;exitDy=0;entryX=0;entryY=0.5;entryDx=0;entryDy=0;fontFamily=Times New Roman;" edge="1" parent="1" source="JMNptI0SkTSTvYcWqJ-m-4" target="JMNptI0SkTSTvYcWqJ-m-7">
          <mxGeometry relative="1" as="geometry" />
        </mxCell>
        <mxCell id="JMNptI0SkTSTvYcWqJ-m-4" value="&lt;font face=&quot;Times New Roman&quot;&gt;ReLU&lt;/font&gt;" style="rounded=0;whiteSpace=wrap;html=1;" vertex="1" parent="1">
          <mxGeometry x="420" y="303.5" width="50" height="20" as="geometry" />
        </mxCell>
        <mxCell id="JMNptI0SkTSTvYcWqJ-m-6" value="&lt;font face=&quot;Times New Roman&quot;&gt;Sigmoid&lt;/font&gt;" style="rounded=0;whiteSpace=wrap;html=1;" vertex="1" parent="1">
          <mxGeometry x="550" y="303.5" width="50" height="20" as="geometry" />
        </mxCell>
        <mxCell id="JMNptI0SkTSTvYcWqJ-m-32" style="edgeStyle=orthogonalEdgeStyle;rounded=0;orthogonalLoop=1;jettySize=auto;html=1;exitX=1;exitY=0.5;exitDx=0;exitDy=0;entryX=0;entryY=0.5;entryDx=0;entryDy=0;fontFamily=Times New Roman;" edge="1" parent="1" source="JMNptI0SkTSTvYcWqJ-m-7" target="JMNptI0SkTSTvYcWqJ-m-6">
          <mxGeometry relative="1" as="geometry" />
        </mxCell>
        <mxCell id="JMNptI0SkTSTvYcWqJ-m-7" value="&lt;font face=&quot;Times New Roman&quot;&gt;FC&lt;/font&gt;" style="rounded=0;whiteSpace=wrap;html=1;" vertex="1" parent="1">
          <mxGeometry x="490" y="303.5" width="40" height="20" as="geometry" />
        </mxCell>
        <mxCell id="JMNptI0SkTSTvYcWqJ-m-8" value="&lt;font face=&quot;Times New Roman&quot;&gt;Scale&lt;/font&gt;" style="rounded=0;whiteSpace=wrap;html=1;" vertex="1" parent="1">
          <mxGeometry x="645" y="340" width="50" height="20" as="geometry" />
        </mxCell>
        <mxCell id="JMNptI0SkTSTvYcWqJ-m-9" value="" style="endArrow=classic;html=1;rounded=0;fontFamily=Times New Roman;exitX=1;exitY=0.5;exitDx=0;exitDy=0;entryX=0;entryY=0.5;entryDx=0;entryDy=0;" edge="1" parent="1" source="JMNptI0SkTSTvYcWqJ-m-1" target="JMNptI0SkTSTvYcWqJ-m-8">
          <mxGeometry width="50" height="50" relative="1" as="geometry">
            <mxPoint x="270" y="440" as="sourcePoint" />
            <mxPoint x="320" y="390" as="targetPoint" />
          </mxGeometry>
        </mxCell>
        <mxCell id="JMNptI0SkTSTvYcWqJ-m-10" value="&lt;span style=&quot;font-size:10.0pt;font-family:&amp;quot;Times New Roman&amp;quot;,serif;&lt;br/&gt;mso-fareast-font-family:等线;mso-fareast-theme-font:minor-fareast;mso-font-kerning:&lt;br/&gt;0pt;mso-ansi-language:EN-US;mso-fareast-language:EN-US;mso-bidi-language:AR-SA&quot; lang=&quot;EN-US&quot;&gt;&lt;img src=&quot;file:///C:/Users/86152/AppData/Local/Temp/msohtmlclip1/01/clip_image002.gif&quot; height=&quot;16&quot; width=&quot;9&quot;&gt;&lt;/span&gt;" style="text;whiteSpace=wrap;html=1;fontFamily=Times New Roman;" vertex="1" parent="1">
          <mxGeometry x="640" y="410" width="60" height="40" as="geometry" />
        </mxCell>
        <mxCell id="JMNptI0SkTSTvYcWqJ-m-13" value="" style="shape=image;verticalLabelPosition=bottom;labelBackgroundColor=default;verticalAlign=top;aspect=fixed;imageAspect=0;image=data:image/png,iVBORw0KGgoAAAANSUhEUgAAAJUAAAAlCAYAAABLaKs6AAAgAElEQVR4nO2cZ3PkSJKmn4hAQCVSS2qyRKuZ2bv//x/O7mxnp6eruhSLRZ1kMiV0xH1AJsmqVuzZ2Tuz2Q6jMYsFJODweN3DxRsQxhgrhOCP8cf4Zw35/1uAP8a/3vgDVH+Mf/pwnnKStfbhDyEQWNY///hYL7miusHPX0sIxBfH/quW6s+ecfN/gMDy+SGBEBaLQDw+0woQPz0XYRFWwBdi/5eHHGtBflGv66M/fWyx+Xn4/s/o5tfkfxKoHgR9JIj48sK2mhgrsFiEEOtJeSzkIzDeg8VikRuMIXg0wdasz/l/GPPZB6mstZTWgrFYAZj180iBUBK5Od2a+/OrvyswbZ5ISAlSItd6+H8fwYoNvjdW/PnRtU1UY2NKn30bALOe19/yJk8GlbUlpsgp85w8L8jzktJaDFRWK6rbCyGRwq4tfH3cVkja+CbhOEhHIQVIa7BFSVmWlAYQYn09heNqtOviKIXjCJQQ/Lx1PdbAIw/4mfxP8Ku2Os+anLLISJOUNE1Js5KitAihUdrDDX38wEMriRIGWyQUeUqSpCRpQVGCRSEdjaM9/MDH81wcJVAbVH0pz0/kXoP7icvBg4Hbz39bsGJtGMZirMEWOUVZUBQlRWkw1mIsWCuQUqEcjeMolLRICQgJViGVpLIP8auG8TRQiRJbpmSrKau7Oya3U+5mS5ZpQWrBrK1RKQ9Hu2hlUKKgLHLyvKQoNkJLlHLQ9Qi3USNQ4OY5+WJBPF8QF4ZcSgQe2guJOl2a3Q7NRkgj0AgFam3tdj0Rv7p8/vIM/MLkWawtKLIlyWLC5Pqa8dUtN9MVi9SCblJr9OhuDegNO7RqmkDm2PiO5fSaq6tbrsZz5gnk1kNHbRrtHv1hn37PI5JibXAbI/ydYYT4fDJ/01BshVVrDdiSosjIs5RkPme1mDNfLlnEKXFekpcS0GjHI6g3iOo16p7B15ZCeFgZ4Psega/RCKT65ds+DVTWYk1Bka1YTa+5OTvl7NMlV9Mlk9RQKB8d1AijJvWwRqgLtFiRrBYs5gsWq5JVLhDSxw8jGltDWsM2LdfiJ3Nm5xfcnF4xSQ2JcFFBk3qzzyBTGD/C9X1CH/RakUKANQKMqdz2JvaqNFiB7gvLvX8OBMIYzKPZqaLEypVaazFFTLq6ZXLxnk9vPnJ8OuVqLnGaW3R3LYdeDb/VJAoVxhaU6YLk7pLrk/e8/3DJ5RSWokk0OGDrwMepN2kai7FiDV6Dqazi0dpjH4yFLzzWT0IG1uevQwwhvgCYvf80ZUFRJOTJkuViwXw6Z3E7ZT6dMUtWzNOMODcURiKtRjsBQaNOFPnU3JJQC6zfQdV6dFoKx3HQv5HePQlU1fwYrMnJswXLmzOuPrzi9fEVx5OMLOwRDPbZ2rLsDyUiKCjLCbPxJy7Pzvh4teJqrtBhn85ol10nRDVCQjJEfMXt6Sve/vUtZ3eGqWpR6++wfaBR7T7ttKS4V+Z6+TNgMVi7iRMsRgokD17sp+55fcQaDBZbrq8pJEJUsYKsAiKszSmyBcvxGddvX/Hm72M+3Chq+5Zdf0Rrv6AArJDricvI4inTiw+cvnnL27HiTo0Y5E2cjmG3rJY9JdfRyib2wlQGIe6V/IXbso+kX4cTa12IDaSkRFj78P3NhFkLlJT5inQxZjq+5PzknIuzMePbFfNVTq4VuBKkqsINK3HslPndGVcYyHMc7eMOn9PaDZBeQL0uML+RZDwxphKARCoHR2sUOTa5Y3Z1zsVpQtbVtJqCvg4J6hG1IMGNYZXNSG5OuP604HgWEnZDnI6DVT6B5xO4Kc5iQb6cMLsZM5k6zP0abkehfB/P9/BchVZiXfuwDzFPnpOlOVluEVqjXA/tKFxHVoHx4+xHAMJgTYbJctIkJUtLCqkRrk/gaXxXYuXaY0gL5OTJgtXtNTenN1xe+3SaGUOrEVrjOBKlJMJUS5opMrLFlMX4itsbj4nbolaC9VwcrXGVRdicMk9Jspw8KzFCI7XG9RxcV1eB/GbJ2oDDlFhbYIqCNE5I0pLCSoRy8QIP39M4SiLWnm4DQGMLinhOMhszPjvm/PiY9+8vOD2fsyg0RgcEbY+aH+J5Lp5SaAwiS0gWExbTKZPrlLSsUS97mE7OqLQY8Tl+/3FQWYlUHm7YJOoM6W71GZ216RzfEF1JTHvE4OBrnn37gu+e9+g7M8yNxbl9x1jkaGOxIsBvDuntPOfg8CVf7TdpG0OWwJWvCWtdukGX7vAl+1+94Js/HbG/22fUDWn4TmVQwoDNMfmceD7l9mrG3V2OrHcIen1ajZCWEjh2o9xNBmoRlJT5kmx1x835hJtJTOI2cJp9hp0Gw3aApwRCCpTjoD0PVyu0UigRokSbRnPIaKvPsNegHbmErkLlDkZptPbRQuOiCHRE3uzQHfUZ7nVpdwICp0SVK+LlHZOrKZNJQqEb6Eabdq9Op6XxpEDdo+rRclgm5KsZd+c33IwXLMoAEzTob3XpD5uEElyxWQYNYLBFTDo75+bjG17/n+95/bdj3l9m3BURjb0Bw/19dnd6jAYRUejjOQItcsxywvy85OrDlOlxwd1tgdoChEJphXIk4p+x/CEkQmq0XyOoN6k3mjQaNep+ROQ4iHqf4e4uOwe77O3XaeaG1Urh2JwyzSlLiXRqBI0+7eEOo2GHraaDvi0ZLxKsCXBbuwwa+zSefcuzrw/4+sWQfrtG3de4jkKulwlrDWURk69umZyfcnY6J4+G+EvL9lYH1a8TBQJXVrDCVh6qyJesbk+5uzzj4/sbzscFRXOHaK9GrVZjsKmTIBAShFxnsEJgdYSK+tQ7Awb9Lt1Gjbon8YTAKig2nqWQqMLDd+qIqEOv16Y/iGhFGk8WUCQUyYzp5SfOP90ytw1kc8Qo2cIKSavmEmqJo9ai2BJTxCSzG2bX55y8PeP0dMFS9tB9garXafTB36x2woItsSYhXY65PX3PyQ/f8/qvP/LD61vGZRvZ77I92mf3xUuOdrtsdyPqoYvrWBxyilWNuR7jrG547wOmhisCQtfF1wpX/Xrm92RQbeIZgVinmAKswjEuLhLPr9Ns1KjXPXzPYud3zK4+cX5+xfvrJeM4xAQBXtQgatRoeBl+ecvk7IwP399yNQmwzQN6z55x+KcXHOx1GXYiosDBlRL5pb81OWU2ZzH+yMXbE67FEHuRMv/2OUprth0H7SmEAGELymJOMj3n8s1fOf7+NT++T7hYNag9r7PbtxRmbTtQzU5RQpaRpinLoiQNIqzXI+x2aTfrNAKXQCkkFkNJaVOKYkWyKkgWGqUiGl6Lbq1Gt+YQenJ97RJbrEhmp0xOPvBxrFnIETu335IYh6OdNlsdD0dViQc2o4gnTM7ecvLmDd//xyXHZyVyIOmGA0Zlle1LCVXkL6q4N75lMf7IyQ/f8/f/9Xd+fLvgPKkTHn3D3v/4C3/68yHfvhwyaIXUPY2nFVJYpCwwKkP0u/QWfbq7DW5MRK/Tohe4RI5Cy99uwzwtUIeqWixKLOuaUm4pCw24+Dqg7rsEqkBkKxZ3Y8YX11zfzpmuSjKjUZ6PH3r4PpBOia/OuPh4xfFpxkxtEeweMTw8Yv9wyKgb0vQ1jqrilXVatga4QCoHpRyULCCfsZjlTOcKqR280EMgUJ2A0DXYbE48PWN8+o73P7zhzX984OQ2YOnX8a3Gdx1crR4FyhabpRSrFfFqxSLLSTwNfhO3VSPwFVoKbJFjXUuRpaTxnNVqxiLJWeYuwqsT1Vq0woCmq/AliBKsVCgl0dqiRUx2d8PtfI7RGhkEaGFxnTadusYVGeXqhunlCWfv3/Hu1TuOT1KuV3VafQe9iTclSMQ6B8kp8hXx3QU3p2/58OYtP7695GxWJ2tssf/sBV/92ze8fDngcFij5iqcqpZb6VcIpBsS1Hs0hwlbzwtSP2S026HX8Im0ZONE/9OgWmsbaw3G5ORpShLnpKmkNCFa+kTS4mYTssktk4srLi5jlrFEBwGhDHFCnyAAR62YX4/5dPuW43dTzpYR3sE2oxdH7OwPGDYDGr5GKfGQxNwHoQJwkLqB1xjR391nMZ0z/3HMYvyeT68tq1KQpGBfDuiHMU58zvW7V7z//u98/+9nHB9bTLtP+/AFu0c77I2atCIXZw0qa0ryJCGZz5gvFiySlFxLnLaPEyiQBUWeksYWk5ck8ZzF7Jb59Ia7JGWuHEQtImg1aNR8Gkrgss4UnRA36tHb3SdZxcyX78je3bA4fc27wiJMiXAE5SigpZfEF284f/MDr/72ntfvZ8xMj3D7kO2X+zw/6jNoRwRSIjdlijKjWGehF+9f8+HkkuNpSRz2aR+85PDlAV8/67HdC6m5Ei0fAUSsl37hofwBfsfl8FtDc9ul3mnR7QSEnnpSN+CJoLLr2S2q+KTISLOcrJCUVqMQaJNS3C2YlufcjGfcrSRGuESBT135xK5Gyxyb3TG5uWL+6ZqLmSapDels7bB1MGAwbNIIHTxHcF9be7T0VbUkiXRC3LBDa7TPdhwzX5asVhec3p3z6bVTZYsqZhou8FefOH/1mrevPvHpyjBVAwZbz9j9+hn7hyO2OiH1wKkq3RisNeTJing+YzlbslgkFCbG2CVxcsvtdcBZ6RN7FqUKsuSO6dlHzj5dcDVfMZMujXpI0ImoBT6hlGslC4Ty0UGLxmCP7aIgnq/Ik4TjyztmZ+/5FHko11DGIb1gyez9j3z64Q0fTubcLn38rRFbL55x+Gybve0mnYaHK6uCsMFii4R8NWV6ecblhxPOrxbcZppge0DvcJ/d/QG7vRrt0EF/2Y606zodDkI38Os+QwdaQ4Xrevi+Rmv5JAbC7ygpsA56c4oyJ8sLcqCUEmwGyYT5eUw6GzNdlpiwTlCv017dEEsFCmQ2JZ1ecDmekF9bErdHY+8FO0db7A9rdKMKEI97UZ8/+Lo6IxXKrRF1d7BIjBE4WmBf3fD+7AdOzJz54pSunhGuLrk9veH6KicLd2k9/4bDf3vJ19/usT9q0Ko5+EoCZl3kzcnTmHgxZzlbsJjOic0VqfOG0zcr/iM95jTUhKpEiYIiWzC/fMfk8pT3l5KZGNKMatSaIX6oUZsquBAIHKQOCRpDQHFYgg581N9O+XB8w/z473w/u2Jy6tKu50zeH3NzfMPSdNDdI3ZevuTlnw54tt9l0PKpufK+NiesoSxjkuWEyfk11ycTZjOL0S0agwGj/SG9TkTkySpT/LlptpXrEirAER41ZQmtREpZtd/kzxVn/2FQUSHZllhTYIqcrCzIhSF3LHm+IJuOmYoCOysxrodTF4S1gFw6+BhUnpLP7phfW8w0pywioq0Rwxf7bO316bdc6p7E+ZUWshCbsp8Cx8WN2jSVQtocJQriaczy+gNnFzPezD7xoVgQ5jFZ4oLTozs8YP/PX/Ps6z0Odjt0I03gCJQEa6DyVCV5GrNaLFjNctIlCG3wbArZlMW0hJViLkqkScjTOdPTMyZXY6ZpizLy0FFI2AzxAo1a98nuC+hCo/0WUmmktCgtydOCbLng3dknrq4/cnsl8CJYXafkc5fW7oDt/WfsPzvg8LDPsFMj8hy0fIg1wVBmVcnk7uaO8fWKOPFQtRaNbpfeqEmr4ePLR6vA58pd670KMVDgfnGitb8dT8HviqkEtiyxZUZepmQmJ3FKEi9nFd+wOIcsamOdLo2GoqnnqEuPZWIQ85RSzVlewY0qcJwuQXtE72CP5y/7bA9r1LTEue/s//qoCt8SKT0cr069v48QgnIxx0kuKF6dcPp6yu0ckC1ao5fsffUVB998xV++2+Nop0mv5hA43PfiEAIrqpgxSWJWsyWruaBM2jSb29R3D9jd67LdDwkdiTQ5ppiTzCR2rFjlBboEpT3Cmk/Y8HB951FNR6x7cVXsInVI0BzRQVAkKWW2ZLX4K1enH/hwkjITAa67T3+wz+HBV7z483OOjgYM2wGR6+CIR2ClaqOV2YJ0ect8tuBubsjLEN9v02426HZDwrBKfp4CjM/PsVj7lG9V4/d5qrLE5ilFlpEUCTEZK+EwXTnc3YY0/BFBt0+ta2mInNwRFHFBukiJ8SgdgVOr0xrWqY92GO4N2N2K6NY1rrQobNWc/kX5Hw7cc5qURgU1gkaLZrtGr6Hw7YJ8csl0oin8EHfoIaM29W6bTqdGs+biOQJHCox5ZH6mxBQJyWrJfB6zyjRGdWl09zg4eMHRUYedQUCgVaWHdMxinJN99LgzgkC4WDekFgZEkcZ1FeJRpfAhfxUgFI4O8cIGUbNOsxPg+wU2mzC7WXJZNqi392lvN/AabZrdFo1mQOg6aMUXrZmqEW6ymDxesIwTFklJYT1cXScMA+qhxvfkT9kMv8in+pwN8nvoX78v+ytzTJpWgWy6YpkumScl3jLkalWjEfYY7g7Yaq5wl9fciYIkjpneJUyMwvPqBLbGTqfHztEWO1tNuoEiVAL5wHN7kizVR9WnK/Ml8fKOu8mMq9uYeSKxToRfU1jfQaucMlsRL1csVhlx5hO5osr4HvOITIbJE9J4wWK1ZIlD0erQ2t7n6PlzXj7vszvw8LXEZDHZ0mHiTJmGARfWJRQhym/SDAOagSbQ8qEkwqb7WDWvrTHYMiFPFyxnM6aTBfPYkBKiAkGDkMAxqGxFsVyyWsbEcU7WcNFKor/kNVmLKas2UJYXJKWgxKk6IcrFU3KdjPxcb3RTtln/e9OcvwfWrxn6T8eTsz9rLRQFJsnI04w0TUiyjKwsyKSPCfpEnT6jUYueZygzAyYjSVOWSUEiQKsafqNPdzhkZ6dDvxlS0wINmI3afymIZJ39sW6JGYMxCXk8Zzm54vr0E6end5zeSlI9pLnbJywN2vHxIoHOJszGV5x9auBLiyaiEbr4DqDWei1yTBqTLBcsVzGJ40K7Q304ZLi9xfZWj1FX42tJkS5I9S12otBKYq2DckP8sE4jqBF5uupDPgJVRSszYAvKbEW6uGF6fcrl2SUXV0sWJsLt7rPVNljlIssakbOkmI25Pb3kuqYJPQlNn9DVaCnue4WsCXRCVK0mKSvgGlNQlhUfbFN1F4hHXmitVVMlYdZUNBhjBUKqqse56U78c0El1h0Pgy1ziiwjywpMLlGyRtQd0n+2y9Zen2EnpGZumdkKfHFqyY2HE3Zo9bfZ2jtgb3fATq9GK1Rr4t1TRX7k7ikpswXx7IyLd6/58Pc3vPrxluNphOgf8GLYpa4TwmLBcrZisTzj9r3gb2lBmmbAHrsDQS/SeKq6ZlkWFFlMvFqyTBJyHaAaLfxui6gREYY+vquq5nABRZlgkxmrNGVqFKkXUo8aBGFIqBQem0y2Yj+srQFbrMhXY27P3nL65kdevTrl/UlCrLfpf/0tz7uaemBILsbE4wX57QdOvq9qaEZIjO0y6jgod90rBBAKqX10EBEGHqFnkPmKNJ0xWy6ZLXPS3NyzPzdarxitFmyBzZdkacxsJYhLje8H1CIf33V+Prj/hfF05qdZc3OylCIrKAuBdus0/BHD3W32j7bY2m7RqUvkvGS2dsOp0ciwSaO/x2jvgMOjHXZGbbp1l0CrR0r/NWDZ+4+K8lJQZHMWt2eMP77j4+t3vHt9zsWdJgv36D97xv7Xuwz8FWF6yfj4I6fHV5zNzrh+XyCFRTkKa4aoUYNWo6pm2zKjSJYk8yXLeYYRGrcVETZrhJGP52qcdT1L2RKTLMjmdyzihKlVCL+GbjTwwoBQ6/viYjVv66U6i8nmV9xdfeTk9Wvevv7A8VnKJK0RbR8yONpnfyegE6bMP/zI1dtjzs6n3J2/50xJLAoMKCnoNAIij3VfVKG8Gl7Uptmu02m5XCYx0+U146tLTs/GjOouPU9R950HYzamSr7SJau7GxazObeJy4oa7Y7C8Txc5+fJRP9JUFnAUOYZWRqTJyWUAfXWCL/3khcvDnl52GOrV6OmU7IypUxjkhwSJ8Lv7dJ9/pKjr454fjRkq1+n5jlV1Zx1H/QJUlTkvIIyn5HOzrh48z3v/v17Xv0w5tO1gN4+2y+/5cWfDvnqeZeOX+DEA4Z1n4YL9odT3p/9wGW2Ik4y0iTDygMOHU2vZrBk5PmKeJmQ3hVI36EWRdTqIUHgoPWGS2+wZUm+mJFMxiySmKV0CGs13G6LIArxXAelJPY+XjHYYkk6v2L88RWffvyBv/37MW+OF6zcIcHoOXvffMVX3+yzM/RpqJi47tKpaRzeUXy4YPouY34XkyQZuYXnB12cboh0AaFxvBZBY0h/q8fWdsTHmzsubz9w8rqH3+rQ9Dxa9RDHdYg2rkeW2PiO1eSSsw9nXF4umNDE1LeQXkSj+ZhU888ElRVYYymLgiIvsbi4fodee5fg2TOeP9tmb1SnE2m0SciKApMbChUimiNavSO2vn3J0fNd9kZN2pGHqyviWrVX4qlCG6CgzOYk82smZ6ecf7hgPBGkesRg55Bn373g5cstjrbq1FyDSEMip0CTES9mJNMpp8srbk8jztot2oMunZZHSxvyxS2z8TmTqwm344SkawiRFSdbVomEMQXKrkiXd0yvr7k+v+bmbsk8D3Ckg3QdpFYgNzWf9dKHWVe8J9xdfuLs+BOn50tuVgFRd5utZy85fHHI0dGQQcPDIyX3wFWWbLEiXi6JT+64PT/hotEk7HZotWp0WgGelSjh4Lh1gsaAwe4B+8+vOLnOGK+WpDcnnP7Q5HXkELolyW6bQcPFVwaTLUln10yvrzg9HXN9k5NGEUEkQFbx1G9RXf4xUImKo1OUhqKQKK9Bs+fR7B/S+2qPo50uncjFVxZRlpS5wRQCFXYIdro0Dr/m5V+OONjv0au7RLpqXTyxLMUDnxPAUBYr0tWM+TxlsdTo9hZbO9/x/M8v+e7lFtv9OnW34kIZr0HUP0A4GlsaQtcl/LjidLWgWE2ZzOasVopcJ0zP3nDy6ns+vD3h+GJOXC7pTBYsFwlxUm34KGxCEV8zG7/n08cPvP7xlE9nMyYzixfHxHFMkqWkRUGBg76XH2wRkydzZncxkztL4Q5p7u1y8Jdv+O5/vuBwr00v8vAdB2Utqjmgg+Aoz6rlWp2hTjPsasbd9ZzZIiG1FfVGS4GQIX69T//wW7LcMF05lHzg+HbM/OR/831xw+35W37c6zAahERaoUyJTVfkq4zZXFKIBp1Wj63tDv1eQBSqiorzO8aTOeogEdJHeU2irmEoBcHogMHBgK1ujZpWOFhKK0B4OH6L5sBlWwX0Xxzy/PmQnWFEw9dVpfZxDeR3iSzWsnh4YZv6QOC3j6i/+IpnL7bZG9ZphhsetUBKDxV1UNpBFgmOkhTeGH1lsHUXX4MwKSabs5pOmE+mJIXA+HWUF+AqgbJmvdunoDQ5JlkSL6bMlhmz1MHKkFqtQei5+NIgKSmtqbZ3PXo6Q8VLk24Dv7HFIOojO0c8//qIZ0cDBg2PmrvZceMgZETQFPT2Y4SwJKmH1DMWXkTgyqqlJddsUQRIF8drUO/tMyrh65WpVpV3V5zcZCSLS64+ZpTJNbPbGjXfxVUaVyi08lFug1pjwGDQZatfpxP5eGtmwu8ZT+RTrYt1QZuwe8BIDQm2FV67T2sQ0ajpqtVhK2XooE00OGAPg7uq0dkastcNaQfrwt2GEfBkMR93nBwct0Otbdn5uo7fTbBRj2A0otepEa77YQ8NUhA4CKeG396nK0K+Cqd07nLKqIfXbdAOzZqzHuCGfXqHLs+bDjbao7Xdplv38aRAVOR4SmuxQuPWRzR3v+PAzWnbJp3dEVstj8jbsCMfgUpIpFfHa+8weu6hG0tS1UDVewy22nQjB9+5Z9utdS4Q0sOtDWhtOxyWHeqjmFjWUfUew25ITVVF42pDByBcHK9Dvac4+JNH0B7SPbrg9OKW8V3CMge0QBYFRe7iKA8dtWi1erTbXTqdNoN+g2bDI9AgPtP908bT+FSWKrsI6oQdEJGhbhUqjAhqPv79RAoQGlVrUe/DdqBolh61RhVv1fTnfaen79LdgNBS0VojgrpDf69J1DeIIEDXInxXV9bL2hDsRikSpIsKu9R0DeWvaCQ5RvsIzyNQKSoLcWsD2lsvOQpyGpmP9dpE7QE7/XUjVgoQEqECvKBLa+s5u7ZLuFOSEVLrjOiOWnTqHr6z5tWvA3sQKBXghV0623XCdgHKRQUBQegReGrNURf39bjqmRXKrRM0PQaySb2fk1kNjk/0RS9vY/xSh7iRpqN9/GabqLfN8GrM+GbG3SwmLktKoRBOgA7qNJs92p0e/X6LbiciCjS+Voh1HezRFDxttp7y1hdrLNaWlHm1l6+w1XYjqZ1q4+GanSmxGFti8pQiz0gLQW4cXNfB9zRKVUHvRsbfu/XbrncCY0rK0lTyGEA5lSxSrHtiP1dBXfPByoKyKCmLEitV5UFkDnnCanrH/G7OKjUkRmEdH+2F1Bt16vWQwHPQqsCkS5LFjPl8xXyZkuRgUGg/IghrRPUatbqHr9esCyGwxoA1lKakzCuSo1WqIhtqhVRiTZZ7LPo6yLcGUxrKoiQvDMZWQbTWCkc7yC8q3sJuuG9FtdEiiUnihDhO1ptdDUbICoCOi+sFhH6wJlFWFXtHboqq6/n6HXP1NFCtty4Zuy7h398IHjZ03ldk2JT37bo/JeAe9XZd9X0Q9+ljI8eGuHdv0HKTnjy84eCnPa6qKSo27zuw663sdp2ZlYaiKCqg2qooaBFI6eAoB+VIVJXUUZpqd0tZWnJj1qIIpJDrHb4Kx1FIuQbK5jbrh65uaau+4FqH96vk/WkPcmPFepdx9TybLRFCgBCyWmQ3Or3X0brNQlW0BkNZVmCzG9UJ1o35ageS3FTk11vWPtfj08fvANXDA92f/UDN/OKqfB4G2fvtmg/f4x8F1c/cZt2n+iz4/8XG6SNgARWPSjwYzKMNm9Ul1mqW/+QAAACVSURBVByjTV/y/rIP2/qrJetR01XI+6XvsbXf3/+h4bT+bX9SVhG/KfcX6v8MVA96EffGs2nt/VwkK+63hW1cw8Nl/4tA9a85fm7Sfu30x5HOr/coH7zpw/jvpOPf99aXf+mxXjJ+ApafeyGIvV/yPsfKb7w85L/J+G8Mqkdx4W+c93Qn8/soIv+q44836f0x/unj/wIC/xC75CHf0AAAAABJRU5ErkJggg==;" vertex="1" parent="1">
          <mxGeometry x="635.77" y="364" width="68.46" height="17" as="geometry" />
        </mxCell>
        <mxCell id="JMNptI0SkTSTvYcWqJ-m-14" value="" style="shape=image;verticalLabelPosition=bottom;labelBackgroundColor=default;verticalAlign=top;aspect=fixed;imageAspect=0;image=data:image/png,iVBORw0KGgoAAAANSUhEUgAAAJUAAAAlCAYAAABLaKs6AAAgAElEQVR4nO2cZ3PkSJKmn4hAQCVSS2qyRKuZ2bv//x/O7mxnp6eruhSLRZ1kMiV0xH1AJsmqVuzZ2Tuz2Q6jMYsFJODweN3DxRsQxhgrhOCP8cf4Zw35/1uAP8a/3vgDVH+Mf/pwnnKStfbhDyEQWNY///hYL7miusHPX0sIxBfH/quW6s+ecfN/gMDy+SGBEBaLQDw+0woQPz0XYRFWwBdi/5eHHGtBflGv66M/fWyx+Xn4/s/o5tfkfxKoHgR9JIj48sK2mhgrsFiEEOtJeSzkIzDeg8VikRuMIXg0wdasz/l/GPPZB6mstZTWgrFYAZj180iBUBK5Od2a+/OrvyswbZ5ISAlSItd6+H8fwYoNvjdW/PnRtU1UY2NKn30bALOe19/yJk8GlbUlpsgp85w8L8jzktJaDFRWK6rbCyGRwq4tfH3cVkja+CbhOEhHIQVIa7BFSVmWlAYQYn09heNqtOviKIXjCJQQ/Lx1PdbAIw/4mfxP8Ku2Os+anLLISJOUNE1Js5KitAihUdrDDX38wEMriRIGWyQUeUqSpCRpQVGCRSEdjaM9/MDH81wcJVAbVH0pz0/kXoP7icvBg4Hbz39bsGJtGMZirMEWOUVZUBQlRWkw1mIsWCuQUqEcjeMolLRICQgJViGVpLIP8auG8TRQiRJbpmSrKau7Oya3U+5mS5ZpQWrBrK1RKQ9Hu2hlUKKgLHLyvKQoNkJLlHLQ9Qi3USNQ4OY5+WJBPF8QF4ZcSgQe2guJOl2a3Q7NRkgj0AgFam3tdj0Rv7p8/vIM/MLkWawtKLIlyWLC5Pqa8dUtN9MVi9SCblJr9OhuDegNO7RqmkDm2PiO5fSaq6tbrsZz5gnk1kNHbRrtHv1hn37PI5JibXAbI/ydYYT4fDJ/01BshVVrDdiSosjIs5RkPme1mDNfLlnEKXFekpcS0GjHI6g3iOo16p7B15ZCeFgZ4Psega/RCKT65ds+DVTWYk1Bka1YTa+5OTvl7NMlV9Mlk9RQKB8d1AijJvWwRqgLtFiRrBYs5gsWq5JVLhDSxw8jGltDWsM2LdfiJ3Nm5xfcnF4xSQ2JcFFBk3qzzyBTGD/C9X1CH/RakUKANQKMqdz2JvaqNFiB7gvLvX8OBMIYzKPZqaLEypVaazFFTLq6ZXLxnk9vPnJ8OuVqLnGaW3R3LYdeDb/VJAoVxhaU6YLk7pLrk/e8/3DJ5RSWokk0OGDrwMepN2kai7FiDV6Dqazi0dpjH4yFLzzWT0IG1uevQwwhvgCYvf80ZUFRJOTJkuViwXw6Z3E7ZT6dMUtWzNOMODcURiKtRjsBQaNOFPnU3JJQC6zfQdV6dFoKx3HQv5HePQlU1fwYrMnJswXLmzOuPrzi9fEVx5OMLOwRDPbZ2rLsDyUiKCjLCbPxJy7Pzvh4teJqrtBhn85ol10nRDVCQjJEfMXt6Sve/vUtZ3eGqWpR6++wfaBR7T7ttKS4V+Z6+TNgMVi7iRMsRgokD17sp+55fcQaDBZbrq8pJEJUsYKsAiKszSmyBcvxGddvX/Hm72M+3Chq+5Zdf0Rrv6AArJDricvI4inTiw+cvnnL27HiTo0Y5E2cjmG3rJY9JdfRyib2wlQGIe6V/IXbso+kX4cTa12IDaSkRFj78P3NhFkLlJT5inQxZjq+5PzknIuzMePbFfNVTq4VuBKkqsINK3HslPndGVcYyHMc7eMOn9PaDZBeQL0uML+RZDwxphKARCoHR2sUOTa5Y3Z1zsVpQtbVtJqCvg4J6hG1IMGNYZXNSG5OuP604HgWEnZDnI6DVT6B5xO4Kc5iQb6cMLsZM5k6zP0abkehfB/P9/BchVZiXfuwDzFPnpOlOVluEVqjXA/tKFxHVoHx4+xHAMJgTYbJctIkJUtLCqkRrk/gaXxXYuXaY0gL5OTJgtXtNTenN1xe+3SaGUOrEVrjOBKlJMJUS5opMrLFlMX4itsbj4nbolaC9VwcrXGVRdicMk9Jspw8KzFCI7XG9RxcV1eB/GbJ2oDDlFhbYIqCNE5I0pLCSoRy8QIP39M4SiLWnm4DQGMLinhOMhszPjvm/PiY9+8vOD2fsyg0RgcEbY+aH+J5Lp5SaAwiS0gWExbTKZPrlLSsUS97mE7OqLQY8Tl+/3FQWYlUHm7YJOoM6W71GZ216RzfEF1JTHvE4OBrnn37gu+e9+g7M8yNxbl9x1jkaGOxIsBvDuntPOfg8CVf7TdpG0OWwJWvCWtdukGX7vAl+1+94Js/HbG/22fUDWn4TmVQwoDNMfmceD7l9mrG3V2OrHcIen1ajZCWEjh2o9xNBmoRlJT5kmx1x835hJtJTOI2cJp9hp0Gw3aApwRCCpTjoD0PVyu0UigRokSbRnPIaKvPsNegHbmErkLlDkZptPbRQuOiCHRE3uzQHfUZ7nVpdwICp0SVK+LlHZOrKZNJQqEb6Eabdq9Op6XxpEDdo+rRclgm5KsZd+c33IwXLMoAEzTob3XpD5uEElyxWQYNYLBFTDo75+bjG17/n+95/bdj3l9m3BURjb0Bw/19dnd6jAYRUejjOQItcsxywvy85OrDlOlxwd1tgdoChEJphXIk4p+x/CEkQmq0XyOoN6k3mjQaNep+ROQ4iHqf4e4uOwe77O3XaeaG1Urh2JwyzSlLiXRqBI0+7eEOo2GHraaDvi0ZLxKsCXBbuwwa+zSefcuzrw/4+sWQfrtG3de4jkKulwlrDWURk69umZyfcnY6J4+G+EvL9lYH1a8TBQJXVrDCVh6qyJesbk+5uzzj4/sbzscFRXOHaK9GrVZjsKmTIBAShFxnsEJgdYSK+tQ7Awb9Lt1Gjbon8YTAKig2nqWQqMLDd+qIqEOv16Y/iGhFGk8WUCQUyYzp5SfOP90ytw1kc8Qo2cIKSavmEmqJo9ai2BJTxCSzG2bX55y8PeP0dMFS9tB9garXafTB36x2woItsSYhXY65PX3PyQ/f8/qvP/LD61vGZRvZ77I92mf3xUuOdrtsdyPqoYvrWBxyilWNuR7jrG547wOmhisCQtfF1wpX/Xrm92RQbeIZgVinmAKswjEuLhLPr9Ns1KjXPXzPYud3zK4+cX5+xfvrJeM4xAQBXtQgatRoeBl+ecvk7IwP399yNQmwzQN6z55x+KcXHOx1GXYiosDBlRL5pb81OWU2ZzH+yMXbE67FEHuRMv/2OUprth0H7SmEAGELymJOMj3n8s1fOf7+NT++T7hYNag9r7PbtxRmbTtQzU5RQpaRpinLoiQNIqzXI+x2aTfrNAKXQCkkFkNJaVOKYkWyKkgWGqUiGl6Lbq1Gt+YQenJ97RJbrEhmp0xOPvBxrFnIETu335IYh6OdNlsdD0dViQc2o4gnTM7ecvLmDd//xyXHZyVyIOmGA0Zlle1LCVXkL6q4N75lMf7IyQ/f8/f/9Xd+fLvgPKkTHn3D3v/4C3/68yHfvhwyaIXUPY2nFVJYpCwwKkP0u/QWfbq7DW5MRK/Tohe4RI5Cy99uwzwtUIeqWixKLOuaUm4pCw24+Dqg7rsEqkBkKxZ3Y8YX11zfzpmuSjKjUZ6PH3r4PpBOia/OuPh4xfFpxkxtEeweMTw8Yv9wyKgb0vQ1jqrilXVatga4QCoHpRyULCCfsZjlTOcKqR280EMgUJ2A0DXYbE48PWN8+o73P7zhzX984OQ2YOnX8a3Gdx1crR4FyhabpRSrFfFqxSLLSTwNfhO3VSPwFVoKbJFjXUuRpaTxnNVqxiLJWeYuwqsT1Vq0woCmq/AliBKsVCgl0dqiRUx2d8PtfI7RGhkEaGFxnTadusYVGeXqhunlCWfv3/Hu1TuOT1KuV3VafQe9iTclSMQ6B8kp8hXx3QU3p2/58OYtP7695GxWJ2tssf/sBV/92ze8fDngcFij5iqcqpZb6VcIpBsS1Hs0hwlbzwtSP2S026HX8Im0ZONE/9OgWmsbaw3G5ORpShLnpKmkNCFa+kTS4mYTssktk4srLi5jlrFEBwGhDHFCnyAAR62YX4/5dPuW43dTzpYR3sE2oxdH7OwPGDYDGr5GKfGQxNwHoQJwkLqB1xjR391nMZ0z/3HMYvyeT68tq1KQpGBfDuiHMU58zvW7V7z//u98/+9nHB9bTLtP+/AFu0c77I2atCIXZw0qa0ryJCGZz5gvFiySlFxLnLaPEyiQBUWeksYWk5ck8ZzF7Jb59Ia7JGWuHEQtImg1aNR8Gkrgss4UnRA36tHb3SdZxcyX78je3bA4fc27wiJMiXAE5SigpZfEF284f/MDr/72ntfvZ8xMj3D7kO2X+zw/6jNoRwRSIjdlijKjWGehF+9f8+HkkuNpSRz2aR+85PDlAV8/67HdC6m5Ei0fAUSsl37hofwBfsfl8FtDc9ul3mnR7QSEnnpSN+CJoLLr2S2q+KTISLOcrJCUVqMQaJNS3C2YlufcjGfcrSRGuESBT135xK5Gyxyb3TG5uWL+6ZqLmSapDels7bB1MGAwbNIIHTxHcF9be7T0VbUkiXRC3LBDa7TPdhwzX5asVhec3p3z6bVTZYsqZhou8FefOH/1mrevPvHpyjBVAwZbz9j9+hn7hyO2OiH1wKkq3RisNeTJing+YzlbslgkFCbG2CVxcsvtdcBZ6RN7FqUKsuSO6dlHzj5dcDVfMZMujXpI0ImoBT6hlGslC4Ty0UGLxmCP7aIgnq/Ik4TjyztmZ+/5FHko11DGIb1gyez9j3z64Q0fTubcLn38rRFbL55x+Gybve0mnYaHK6uCsMFii4R8NWV6ecblhxPOrxbcZppge0DvcJ/d/QG7vRrt0EF/2Y606zodDkI38Os+QwdaQ4Xrevi+Rmv5JAbC7ygpsA56c4oyJ8sLcqCUEmwGyYT5eUw6GzNdlpiwTlCv017dEEsFCmQ2JZ1ecDmekF9bErdHY+8FO0db7A9rdKMKEI97UZ8/+Lo6IxXKrRF1d7BIjBE4WmBf3fD+7AdOzJz54pSunhGuLrk9veH6KicLd2k9/4bDf3vJ19/usT9q0Ko5+EoCZl3kzcnTmHgxZzlbsJjOic0VqfOG0zcr/iM95jTUhKpEiYIiWzC/fMfk8pT3l5KZGNKMatSaIX6oUZsquBAIHKQOCRpDQHFYgg581N9O+XB8w/z473w/u2Jy6tKu50zeH3NzfMPSdNDdI3ZevuTlnw54tt9l0PKpufK+NiesoSxjkuWEyfk11ycTZjOL0S0agwGj/SG9TkTkySpT/LlptpXrEirAER41ZQmtREpZtd/kzxVn/2FQUSHZllhTYIqcrCzIhSF3LHm+IJuOmYoCOysxrodTF4S1gFw6+BhUnpLP7phfW8w0pywioq0Rwxf7bO316bdc6p7E+ZUWshCbsp8Cx8WN2jSVQtocJQriaczy+gNnFzPezD7xoVgQ5jFZ4oLTozs8YP/PX/Ps6z0Odjt0I03gCJQEa6DyVCV5GrNaLFjNctIlCG3wbArZlMW0hJViLkqkScjTOdPTMyZXY6ZpizLy0FFI2AzxAo1a98nuC+hCo/0WUmmktCgtydOCbLng3dknrq4/cnsl8CJYXafkc5fW7oDt/WfsPzvg8LDPsFMj8hy0fIg1wVBmVcnk7uaO8fWKOPFQtRaNbpfeqEmr4ePLR6vA58pd670KMVDgfnGitb8dT8HviqkEtiyxZUZepmQmJ3FKEi9nFd+wOIcsamOdLo2GoqnnqEuPZWIQ85RSzVlewY0qcJwuQXtE72CP5y/7bA9r1LTEue/s//qoCt8SKT0cr069v48QgnIxx0kuKF6dcPp6yu0ckC1ao5fsffUVB998xV++2+Nop0mv5hA43PfiEAIrqpgxSWJWsyWruaBM2jSb29R3D9jd67LdDwkdiTQ5ppiTzCR2rFjlBboEpT3Cmk/Y8HB951FNR6x7cVXsInVI0BzRQVAkKWW2ZLX4K1enH/hwkjITAa67T3+wz+HBV7z483OOjgYM2wGR6+CIR2ClaqOV2YJ0ect8tuBubsjLEN9v02426HZDwrBKfp4CjM/PsVj7lG9V4/d5qrLE5ilFlpEUCTEZK+EwXTnc3YY0/BFBt0+ta2mInNwRFHFBukiJ8SgdgVOr0xrWqY92GO4N2N2K6NY1rrQobNWc/kX5Hw7cc5qURgU1gkaLZrtGr6Hw7YJ8csl0oin8EHfoIaM29W6bTqdGs+biOQJHCox5ZH6mxBQJyWrJfB6zyjRGdWl09zg4eMHRUYedQUCgVaWHdMxinJN99LgzgkC4WDekFgZEkcZ1FeJRpfAhfxUgFI4O8cIGUbNOsxPg+wU2mzC7WXJZNqi392lvN/AabZrdFo1mQOg6aMUXrZmqEW6ymDxesIwTFklJYT1cXScMA+qhxvfkT9kMv8in+pwN8nvoX78v+ytzTJpWgWy6YpkumScl3jLkalWjEfYY7g7Yaq5wl9fciYIkjpneJUyMwvPqBLbGTqfHztEWO1tNuoEiVAL5wHN7kizVR9WnK/Ml8fKOu8mMq9uYeSKxToRfU1jfQaucMlsRL1csVhlx5hO5osr4HvOITIbJE9J4wWK1ZIlD0erQ2t7n6PlzXj7vszvw8LXEZDHZ0mHiTJmGARfWJRQhym/SDAOagSbQ8qEkwqb7WDWvrTHYMiFPFyxnM6aTBfPYkBKiAkGDkMAxqGxFsVyyWsbEcU7WcNFKor/kNVmLKas2UJYXJKWgxKk6IcrFU3KdjPxcb3RTtln/e9OcvwfWrxn6T8eTsz9rLRQFJsnI04w0TUiyjKwsyKSPCfpEnT6jUYueZygzAyYjSVOWSUEiQKsafqNPdzhkZ6dDvxlS0wINmI3afymIZJ39sW6JGYMxCXk8Zzm54vr0E6end5zeSlI9pLnbJywN2vHxIoHOJszGV5x9auBLiyaiEbr4DqDWei1yTBqTLBcsVzGJ40K7Q304ZLi9xfZWj1FX42tJkS5I9S12otBKYq2DckP8sE4jqBF5uupDPgJVRSszYAvKbEW6uGF6fcrl2SUXV0sWJsLt7rPVNljlIssakbOkmI25Pb3kuqYJPQlNn9DVaCnue4WsCXRCVK0mKSvgGlNQlhUfbFN1F4hHXmitVVMlYdZUNBhjBUKqqse56U78c0El1h0Pgy1ziiwjywpMLlGyRtQd0n+2y9Zen2EnpGZumdkKfHFqyY2HE3Zo9bfZ2jtgb3fATq9GK1Rr4t1TRX7k7ikpswXx7IyLd6/58Pc3vPrxluNphOgf8GLYpa4TwmLBcrZisTzj9r3gb2lBmmbAHrsDQS/SeKq6ZlkWFFlMvFqyTBJyHaAaLfxui6gREYY+vquq5nABRZlgkxmrNGVqFKkXUo8aBGFIqBQem0y2Yj+srQFbrMhXY27P3nL65kdevTrl/UlCrLfpf/0tz7uaemBILsbE4wX57QdOvq9qaEZIjO0y6jgod90rBBAKqX10EBEGHqFnkPmKNJ0xWy6ZLXPS3NyzPzdarxitFmyBzZdkacxsJYhLje8H1CIf33V+Prj/hfF05qdZc3OylCIrKAuBdus0/BHD3W32j7bY2m7RqUvkvGS2dsOp0ciwSaO/x2jvgMOjHXZGbbp1l0CrR0r/NWDZ+4+K8lJQZHMWt2eMP77j4+t3vHt9zsWdJgv36D97xv7Xuwz8FWF6yfj4I6fHV5zNzrh+XyCFRTkKa4aoUYNWo6pm2zKjSJYk8yXLeYYRGrcVETZrhJGP52qcdT1L2RKTLMjmdyzihKlVCL+GbjTwwoBQ6/viYjVv66U6i8nmV9xdfeTk9Wvevv7A8VnKJK0RbR8yONpnfyegE6bMP/zI1dtjzs6n3J2/50xJLAoMKCnoNAIij3VfVKG8Gl7Uptmu02m5XCYx0+U146tLTs/GjOouPU9R950HYzamSr7SJau7GxazObeJy4oa7Y7C8Txc5+fJRP9JUFnAUOYZWRqTJyWUAfXWCL/3khcvDnl52GOrV6OmU7IypUxjkhwSJ8Lv7dJ9/pKjr454fjRkq1+n5jlV1Zx1H/QJUlTkvIIyn5HOzrh48z3v/v17Xv0w5tO1gN4+2y+/5cWfDvnqeZeOX+DEA4Z1n4YL9odT3p/9wGW2Ik4y0iTDygMOHU2vZrBk5PmKeJmQ3hVI36EWRdTqIUHgoPWGS2+wZUm+mJFMxiySmKV0CGs13G6LIArxXAelJPY+XjHYYkk6v2L88RWffvyBv/37MW+OF6zcIcHoOXvffMVX3+yzM/RpqJi47tKpaRzeUXy4YPouY34XkyQZuYXnB12cboh0AaFxvBZBY0h/q8fWdsTHmzsubz9w8rqH3+rQ9Dxa9RDHdYg2rkeW2PiO1eSSsw9nXF4umNDE1LeQXkSj+ZhU888ElRVYYymLgiIvsbi4fodee5fg2TOeP9tmb1SnE2m0SciKApMbChUimiNavSO2vn3J0fNd9kZN2pGHqyviWrVX4qlCG6CgzOYk82smZ6ecf7hgPBGkesRg55Bn373g5cstjrbq1FyDSEMip0CTES9mJNMpp8srbk8jztot2oMunZZHSxvyxS2z8TmTqwm344SkawiRFSdbVomEMQXKrkiXd0yvr7k+v+bmbsk8D3Ckg3QdpFYgNzWf9dKHWVe8J9xdfuLs+BOn50tuVgFRd5utZy85fHHI0dGQQcPDIyX3wFWWbLEiXi6JT+64PT/hotEk7HZotWp0WgGelSjh4Lh1gsaAwe4B+8+vOLnOGK+WpDcnnP7Q5HXkELolyW6bQcPFVwaTLUln10yvrzg9HXN9k5NGEUEkQFbx1G9RXf4xUImKo1OUhqKQKK9Bs+fR7B/S+2qPo50uncjFVxZRlpS5wRQCFXYIdro0Dr/m5V+OONjv0au7RLpqXTyxLMUDnxPAUBYr0tWM+TxlsdTo9hZbO9/x/M8v+e7lFtv9OnW34kIZr0HUP0A4GlsaQtcl/LjidLWgWE2ZzOasVopcJ0zP3nDy6ns+vD3h+GJOXC7pTBYsFwlxUm34KGxCEV8zG7/n08cPvP7xlE9nMyYzixfHxHFMkqWkRUGBg76XH2wRkydzZncxkztL4Q5p7u1y8Jdv+O5/vuBwr00v8vAdB2Utqjmgg+Aoz6rlWp2hTjPsasbd9ZzZIiG1FfVGS4GQIX69T//wW7LcMF05lHzg+HbM/OR/831xw+35W37c6zAahERaoUyJTVfkq4zZXFKIBp1Wj63tDv1eQBSqiorzO8aTOeogEdJHeU2irmEoBcHogMHBgK1ujZpWOFhKK0B4OH6L5sBlWwX0Xxzy/PmQnWFEw9dVpfZxDeR3iSzWsnh4YZv6QOC3j6i/+IpnL7bZG9ZphhsetUBKDxV1UNpBFgmOkhTeGH1lsHUXX4MwKSabs5pOmE+mJIXA+HWUF+AqgbJmvdunoDQ5JlkSL6bMlhmz1MHKkFqtQei5+NIgKSmtqbZ3PXo6Q8VLk24Dv7HFIOojO0c8//qIZ0cDBg2PmrvZceMgZETQFPT2Y4SwJKmH1DMWXkTgyqqlJddsUQRIF8drUO/tMyrh65WpVpV3V5zcZCSLS64+ZpTJNbPbGjXfxVUaVyi08lFug1pjwGDQZatfpxP5eGtmwu8ZT+RTrYt1QZuwe8BIDQm2FV67T2sQ0ajpqtVhK2XooE00OGAPg7uq0dkastcNaQfrwt2GEfBkMR93nBwct0Otbdn5uo7fTbBRj2A0otepEa77YQ8NUhA4CKeG396nK0K+Cqd07nLKqIfXbdAOzZqzHuCGfXqHLs+bDjbao7Xdplv38aRAVOR4SmuxQuPWRzR3v+PAzWnbJp3dEVstj8jbsCMfgUpIpFfHa+8weu6hG0tS1UDVewy22nQjB9+5Z9utdS4Q0sOtDWhtOxyWHeqjmFjWUfUew25ITVVF42pDByBcHK9Dvac4+JNH0B7SPbrg9OKW8V3CMge0QBYFRe7iKA8dtWi1erTbXTqdNoN+g2bDI9AgPtP908bT+FSWKrsI6oQdEJGhbhUqjAhqPv79RAoQGlVrUe/DdqBolh61RhVv1fTnfaen79LdgNBS0VojgrpDf69J1DeIIEDXInxXV9bL2hDsRikSpIsKu9R0DeWvaCQ5RvsIzyNQKSoLcWsD2lsvOQpyGpmP9dpE7QE7/XUjVgoQEqECvKBLa+s5u7ZLuFOSEVLrjOiOWnTqHr6z5tWvA3sQKBXghV0623XCdgHKRQUBQegReGrNURf39bjqmRXKrRM0PQaySb2fk1kNjk/0RS9vY/xSh7iRpqN9/GabqLfN8GrM+GbG3SwmLktKoRBOgA7qNJs92p0e/X6LbiciCjS+Voh1HezRFDxttp7y1hdrLNaWlHm1l6+w1XYjqZ1q4+GanSmxGFti8pQiz0gLQW4cXNfB9zRKVUHvRsbfu/XbrncCY0rK0lTyGEA5lSxSrHtiP1dBXfPByoKyKCmLEitV5UFkDnnCanrH/G7OKjUkRmEdH+2F1Bt16vWQwHPQqsCkS5LFjPl8xXyZkuRgUGg/IghrRPUatbqHr9esCyGwxoA1lKakzCuSo1WqIhtqhVRiTZZ7LPo6yLcGUxrKoiQvDMZWQbTWCkc7yC8q3sJuuG9FtdEiiUnihDhO1ptdDUbICoCOi+sFhH6wJlFWFXtHboqq6/n6HXP1NFCtty4Zuy7h398IHjZ03ldk2JT37bo/JeAe9XZd9X0Q9+ljI8eGuHdv0HKTnjy84eCnPa6qKSo27zuw663sdp2ZlYaiKCqg2qooaBFI6eAoB+VIVJXUUZpqd0tZWnJj1qIIpJDrHb4Kx1FIuQbK5jbrh65uaau+4FqH96vk/WkPcmPFepdx9TybLRFCgBCyWmQ3Or3X0brNQlW0BkNZVmCzG9UJ1o35ageS3FTk11vWPtfj08fvANXDA92f/UDN/OKqfB4G2fvtmg/f4x8F1c/cZt2n+iz4/8XG6SNgARWPSjwYzKMNm9Ul1mqW/+QAAACVSURBVByjTV/y/rIP2/qrJetR01XI+6XvsbXf3/+h4bT+bX9SVhG/KfcX6v8MVA96EffGs2nt/VwkK+63hW1cw8Nl/4tA9a85fm7Sfu30x5HOr/coH7zpw/jvpOPf99aXf+mxXjJ+ApafeyGIvV/yPsfKb7w85L/J+G8Mqkdx4W+c93Qn8/soIv+q44836f0x/unj/wIC/xC75CHf0AAAAABJRU5ErkJggg==;" vertex="1" parent="1">
          <mxGeometry x="141.53999999999996" y="364" width="68.46" height="17" as="geometry" />
        </mxCell>
        <mxCell id="JMNptI0SkTSTvYcWqJ-m-15" value="" style="shape=image;verticalLabelPosition=bottom;labelBackgroundColor=default;verticalAlign=top;aspect=fixed;imageAspect=0;image=data:image/png,iVBORw0KGgoAAAANSUhEUgAAAHcAAAAjCAYAAACuJpVrAAAYAElEQVR4nO2bZ3MbSbamnzRlUfCgp0jZNhMbu///b8xMTPe0DC1IEIS3ZTP3QwEkpZbUmr63e3YnbgZJ8EMVKvO8x77nlLDWWv5n/Ucu/ftuK/Xhi2ohRPnx+778v7y+VV+F+Hft8M9ZvxPcDXgb2WygxlqL+LdB+skSAoHlcUe2/LEWK/6f2eUfur4NXLuF73EJDMYYCgPGWoSQgECpEnoBj+j/4evXnsRagzUGY0qlK/ciELIEVgjxcJ4/HejPyBMECIO1G8V7es1GUYFHxfysc/rY6L7dcp9quzVYm1PkGXFakOeActBK47oaRz+1mD9riSeexCKswdiMIs3IC0uBREqNch0cLTGA/FP39+v9IrZSsqVMTYHNDYUtFdJYsAiQAikUQgqU2CimteV9D0panv+pzD8L7mdjlrVYY7AmI08T0vWU5WrNZF4Q5w5+1CCKIupViVISJeE3Y/Onx/3E0v+lXE9YMBZrC/IipUgWxKsl82lMkljwqjiViGpdECqFKx7E+q8958k+/0u5qDVYY7E2J89ziiwlTWKSdUySZmS5ITeWQkikdnA8H9fx8LTEkbL0PkohPRelNVqC+uQRv2G5D9EUYS22iElWE+bje/pXF/R6Q877gjVNDl58x8lzjeNKQl/Bg+geRLL9+dUzvi6jL91nwIJh44asoSgyTLpmvRgyvrvg/rbH1cWMWeLj7z+n9ewZz5VG+S4KUI928wft0W5/Hq6zD38twqTk+ZJ4PmM0umfUv2dwe8dwOGGySFjkllx46LBGrbNPq9mkUwmIXBctBG7o4+/vEDYi6kKhZanj2/UVcLeuocAWGUUak6ymzEa39LsXnP/8d95/uOfnnk/qnvCjaBE0d9jr8OiS7eN38cTVsElqQCA3Enl0NZ8IyZrNfVtBbQS5vQ9LkecUeUK6XrCej5j0r7n+8Dcu3l/y7uc506JO8wfNqdugsd+kCZvn//q8GIt5xGUTqh9DzNN9/vq+RyUQT2L8owwMYCmKApOtSVYzVrMhk9E9N70+ve4d/dseo+GUySpmlUMuPJyoQX08o1VrMPZ9Ii/A0QGVnTY7UQ1Zq1JVW8X5BnAFAmMyTBaTLGfMRz2GvS69mwsuLj7w9udfOOvOOZ+00Y2I3e8S1qndJFcfC41NclPkOVmWUxQWo0p34joSR8kHG7If7QCsMNgiI48TsqwgR4PWOI6Do0EUKXm8YDkdMBn2uLu55PLinA+//MTlhx7XV4bCPeRZe0Z9mZLkFvOZRM9isaagyDPy3FAUYJFoV6O0RqlSER8tXWzijQBbYIuUPM1JMkNhBcrxUI7CcRRaCbACMFiTkK1nzMd3jHtdrs4u6d4MuB2lzBMQKsJpNTk81HiOAkciMNg8plhe0r/MuM1D3MYpO6ZG/aUtLVb+2nN82XJFCYpJV8TzEaObHr3LK65vLrm+7nJz2+O2v+Ju4RCoNaukIC8Exgo+8mCCMhbmKVm8Yjmbs4wLUl1B+iHNakgUOKhtzBA8FDDG5lizJl2tmA0mrFYZiY6QQUSjUSFEoIuUdD1jMbpjcHPJ1fUVl9fXXN/ccXM35L4nEGGVxjIlTQsK87nDlglYYVKy9Zz1Oma5NGRW41YigkpAJXDwHLWxeLtVB7A5eRqTLmesFmtmi4IMB7/eIKhVqCqJlCCxmDwhiyfMBz16V2+5Orvg3U/X3PTXzEQNWe2we3TI7l6bg3aFRlXjaEMRj1ncn3N/OeVsOmCyDFHiAC+WCCvxxJN4+wThr8Zca3PybMF6MWUyXDIZA7JBtRHT6YxZZpJB4SGULDVH2F9lbCCwtsDkC5L5gMH5FXfDFSPZQjb2eXmyx+FencgVSFVmsFZYwICJKZb3zPs9Ln7pcj9MSapHBDsHPFcaKV28LCZbLpmPZ0znKbFTRXUO2MtXKAvFYEFswDEg5GfUGzZu12CyNfG8x7g/4Lq7Zpn6hHuHNPd3ONyro7V+sF6wWJNhizXpYsTo5op+b8RNH1JVpf3yOTvCwXU1viPAZhTpjNXwkv7FO/751594//6OyztLohu0Tl5x8PKU0+f7HOw16VQDIl+ilSFfjVhFhqrNScZrmPlk7Qi3FuG7Lr4QaPEYzbdH/GrMBTDWYCwYApTbpBFVcKsepCOSzNJdesSORAq5qXU/BraUnQWbkSdTFsMug6sRF8mIor4q/Ymj2at51H2FViAowKYkyyGL3jm3F5ec/9SlN5bYA4+W22QnKWiZTT1rLdZqlBsRhU2oVWlXEqomY/5LwXgu8WSZwW9D4Mf5kcVaAyalSKasxj3uL0cM5w7OLKeTWLTSSCWp+g6eMmVWnq3IVmNm911uzt9xdTmiO/Qogj1sa4/KbkFhNt+dxSSzIaPuGddvf+HdT2ec3cTMxBGVg2ccvP6e7//ygufHLfZaFSquxtMSKSx57JPKJSqNmU1T7ESzareodapUPAdfSOSmlH96ri+DawVCarRXI2oK9p43iNoxjrNkNXdQyzPGwwmBq0ml2CQQn6aUG20SAqEkUiqkzDHpmNn1gHF3SJpb5qnlhxe7nOyGVH2BNiuK9YBp74KLv/+Vs1+ueX9RMBctmrtqU6sqtFZoFUK1ReNA4zTXdAJFkoxY+wPcQZ9zT7Ocg7T2V/n7R2ooSuSVlghVYNYD5v2U9SRhMk0wKAqpOd6T6EAgiphsNWZy+4Hu2Rlv/3HOVS9hLg6oBA7CUXiuQmtRZsWrEYvBNbdvf+Hs5zPOr1eM0jrVk1NOvvuO796c8Pp5h049IApctNjW4QKlPdygSdQ8YO/YQFOxqneo7lQIfb0hZX59pi+CawUIoXG8KpWGj/IhTxIcO2ExXDG7Col8B0eLzyRDW4ltAZYI5aG9kEqtQlRx8W2fYrKg+94lLsARBcK22asJfDNlPfhA7+wdv/ztPefnUwbZDrrdIKzVqDdCQl/jOhpNgBKKpo6IbI4MLeulYryssghcfKXQVvCk7P7CYSVSueggwg8rhBWNJyeMhjcs1wbh+1gh0XIPmhKVjlgNruh+eMfZuysurqcMlx7uQYWw1aBWC6l6CleCyWLS+T2T3iXX7y+4OutzP61iGru0n73g+ZuXnJ7sctipEjgSvZFmSawJLBrh1vDre7SONDqVxGEbvxYSeKoMhRsW7puy5dJyFUr7SOmiPIXNY3QaUyxKUKXc1gtfERwgUKBD3KhN8/gVzwpYZwX6vM/Z4C238ykiW7KYH/FiBypmyOjt3+m+veTn90vGWY36yQsOvv+eF6+OOd2v0ag4eEqicBBSoxyDL3Kkk6ELzVJJhN0c+jeXxRqFVAF+ZZfGXs6zN2usFeRvB/SnF3T/VrAYzymKN0wPfYL1BcubD7z761surxcM0wa6+YzD1694+eYZR/sNGhWNqwtMPGc+6jLoXnL5oc/NbUrq16ntHrP/4ojD0w7NeoCvxSdExMZghEL4FVwULadKWAgKp4ryXAJPlnkK35gtPzJFpTtFbbIxxwVRuhopBcKKj6vmL0BbZlseTlintnuCUApTxCibs5zf0h2f0X8vWC9HrHYhLCYM/vme++spvbiNbJ3QfvUdL//yiufP2+y3QyLXQUuBEArB1oVJwJT7+5q2fXaPFilddNAkagsOigwpIItj8nTI9eCS29US5aWMBj6V+JK43+Xsw4jxwsPZ36d9+ooXr095+XKP3WZAxQWHmNV6zmJ0y+DulpvegsFMIVsdmvsHHBy22d+NqAYaLR5StS0Q5aeUCO3jhC7KrxICFg1SotWWdv21X/6dXaF/ZT3S81J6OEGdasvCa4vyIoRyaZzdcDW9Yvz2ktmHkhBYTXNQe0Svf+Do9Xf8+L9e8vpFh92GT+RqHCnK7Nx+lhr6HdsUWCnBejhejXrnhFI8Ei88Q/3jhpv7M7p/veHiHxJtE4QRZFmTcPeQk7/8yIsfXvLidIfdZkDkOWiZQZaSx1PmoztGwyH3sWGhG+w1d+js7LDbqNAM9abW/2xwK8Oe1CBAKlsqshAb72q/6DW/Edxtsf7INNkvf+dH29reLxBYoZA6xKkoGo6L47roYo1jFsz/+o5e9567uWFlI2TlGZ2TZ5y++YHX//sNr160OG5XqDii5FbLE5bh8qPYYH8f51syJgghUTpARZqmUjjKokROPOmzGt3TfX/PzbSgcCLCxjG7xy/ZPXrNyZsXvHpzyH4roBY4aAGiMNgiJl3OWYwGTCZjZoUg8WsEjRatVpNmxSNyJM6m0BC2PFMptk/6RgJ4cMJsuIgvN9/+BMvdLvvg7qVyUGGNwKxpHe0xG3eJfl4jFneMe4aJhGq1yl7nmJ3jA06P2+w1Aqq+Qoky8/1DGnViu8+yA6O9ClGrRWvRYnff4/osYTXq0ruMSfwTWkh2v+9QPzhk57DNTqtCFEgcuSFhMJg0Jl3NmY9GzGZTEtmAsILfrBE1KgSBh6skSn7tPOITAEtD+y0V/hPBfcy6rLVYk2OMoWRbBcKC3DQDQIHjonwXx5GlFWDAGJACa+Ejb/TfjLMV5oEytcaUXkpIhBQYKFtxRoLdlGOOREuQwmLNpg0nAGsxJifLEpLVkiSOyYUAz0WHHo7vobREPSkj7cOf7f9bb/R5mX6tZf77wP09whQbty5KV5WtB8zuLrj86S3vf76iN1Wk/iE7x5KaroKckffP6H6oUvcdNB3UTpXIU7hKlE1t8eXQ8Ek/6hvWQ1cUawpMviJZDJjcXnD9/oz3ZxO6Y43TeclBYFAiolIziMkd47NzrjoBvufwrB2iIhe9aYyJLQBy2+2wD4A9PFk8MOmPJrA5XOmEDaYwZXm0GYoQ4rHp8qX1TS0/PkpaSpDEg69/aM98pj3/5ADWYIscY0quenZ/zt3ZO979dM7Z+Yy53SE4OKIVKZQSzGc5Jr5hdBHyTlp8mSOtZb8ZUqs4eEo9cNGfLoF42MuGyHw4xpNTfLLFTQPAGop0TbK8Z3LXpfv+Ax/e33B1WzAzu3Rev2LXcwiKNTKHJBmyvD2j+zZAS4EyeyBqVAMPh2056eGGIX7g42JJs5h0uWK5XLJK6iS5QQuBlqXFW8ymxWrIi4wiy8nygsKCcFyk1rhaIX9j0uUbLPcJsEKBVCilkA9dEoFAIoRCKlU26p8qAiCEwZqcIlsQL/qMbi+5+ukfXPxyyT/fzxkt63jPnrN/uMNBWxGwZHJ1wbA/4XbwjtvVHJknrJOM5HSP490a9YpL6CrUR+iWXVopSwWRcjOdsLEcudm7UuJxCkNskhhrMEWBzVbEs3uGN2cl8/TzBVc3C8amTXDc4dkPJ3R2fML4jmTQp/u+z3h2Tf+tIFnFmDwjzY842q3RDMHTIV61Qb2zS6PRo3KRspwOmfRuuesd0D+p0WlXcPQmCQMEEkSOzdfEixmrxYr5PCXFRTfq+FFEPVCErkB9pRT9hkmMTRwUEptliDQlSTLSdKNNRYaxm+mMNCFNfbKiTBBKWkxgbIEpYrL1hHn/mv7FB85/vuD8fMxoUcXWjtl78Reef3/E6Z4kysfM6nD1rqB4O6I3ibk7c7FC4+ptG07i6DJrLl2XxdoMKTOyJCFNUrIsJTNF+ZtnpFlCkqYkSUGu5UcjK2VMT8hXY+ajW3qX51ydXXF5s2C48tCdE/aev+TH//OS4wMfP75h0T3Dy2MuzobcTroMMoPje6BKetTRIdr18SpNmrtH7O7fs/P+hsVwwWp4S+/qiuujKrXIQZgIW3HQUiJMhs1j4uWM+WjEdLJkOjdkTkCgfRp+SPUbypWvWO7GTZkCU+TkWUa6nlPMBwzvh4zGUybTBeu5w1qMmU2GDAd3DAaGmhcR+G55QEchbY7NFsTTPv3zD1z985KLbsIwbVF98ZqdV2948+MJJydNdqoC39RpVRRRtYJyfqZ6OeZ2ecvoXHIRuCgvIPBcQk8jNWiTk+U5eb4iNXNmw3uG9yOGoymT1YJpahHzKZPhiNFgxLjuoPyAiufgaoVSFkWBSZesZ7eMe+dcnXW56i5ZiSaVgwOOv/+B09cnvDrtsNvQqFSxchWiMPjBBeKffe5ndwwvQhCKMPTwA4eg5eJELVqHrzk+nfPiOiYxMwaza+4+KH6qQJYsWZ602W9FVFyBthlFsmS9mDEajJgvM1a2glsN8IVECfkYwn8XuJvMz5iUPF6xms+ZTwcsRrf0uj1u72eMZ2vSJMPIGfPJDf3bJtdRhmtbNJp1qlWfSuTiiAKTx6TJguVkznyWEFNDtw84+PFHXv/lFc+Pmuy3fEIPtA2woYcfeCgyfPeC4t2S+2RCPJ8zna9YpTmZAc/k5NmaZDVnsZgwXY0Z9Lr0ru/pDefM85SV1ajFiNF9j7urCjUP8maTVq1KveLjC4GkwJqMLJ6zWiyYLQriIiRoH9F69orXP5zy/Pkee42QyAPhlUMGCoPWijTOEFcLhumc1WjKYh6zSgoy6+H7DaqdE/ZPl7zuL0mLa0w/Yb7ocXfuYc2aYrXDtBNR8zSuKEea0jhmuViRGI0IHDzPx3M0gaNQGx75a/h+fRIDg8li4uWI8c01/etLbu5uuLy54rw74W6Wk5kcwYjJ/Tsu3hlUMmYxOeL49JCDww57WhH5ZVxWKsANO9R3NUfNJjQOefXjM06ft+hUPSqewlECaQWEisjCwesC6dXJ1S3NqYBWQM0vKVCLgTyliGcsRl16vS4X3Vuur6+5P+9y050ztpbEyxGLPvdX73jnJGSrBfPnLzg+kiAdlNJldisFQvt4lRaNPY2JPML9EzrPjjk9bLFT9wm1LBM55eH6NaLOETtWkmfg1yZcD11sUA4gaKUQQiJ1gN84oHVseJ1YnKhJeHbHzXjNLOsxupyQTCpcVQIqrkvgunhhBS8I8YOISr1BvbVDu92iXa+UFYPezGX/PhJjy0YZijQlXc1ZzktXPFsaUlXFa2gOXEuOT1ApEMWcxWzGZNyg3k5oJDl5YbBIhPJRQYNa54hUdwi8HZzmLqfPWuy2/bJ7s9VGoUoOO2xR2xNIXSUvqjQmKWnUxm0ERK4qExBrKIqULC7d2GQ0ZTRaMo9dCq9F9aiOa1x05BHIjGyxYDGeMe+sWcU5WW420yMSqTx0UCdsWvae7VAzIbX9PVq7LTrNCpGrnhD7EqkC3IqghkJYhVed4t8VpKJCo+lT8RRKSqT0kH6TaEdwJBVuVMevX9K86XPdXzBalR5jkcckyiUMIyoiQIUhfm2H5k6b3U6TZr1KveIQOOV0x2/0a34DXCGQ0sUJqlRae7QLiYl2CPdXHMUJcVKQG4tBoRwH148IvSa1eofd3Yh65G1SdonUFYKqoH0SEO4VZG6EDirUqltgt019sSUry26P18BvOhy8DKnHKZmuoIKybehJgUQj3QpBrUNr13BkI7zqPvFpSpqkpAUYJEK7OK6P70dEjTbt3TqtqkvogpYACqFC/Oo+TdXAqVkKXIIowq/4BG7JjpXchC2zbCGQwsf1odqR6LBN0CoorItXqxFWHFwJ1gqk8nCDBrUdB+3XCBt77J5MOZ0smK9S4sJS2HI+2XUDgqhOpdag3mhQr1epVnxC38FVEvlkLPdrS3zuRbBy8xZbFJgiJYtj1vMZq+WKRZwS5wX5Zqb0kT0ux7ylDHDcsm9bqYZl0uIqFPZhSM5YAVIhdGmtUm5Lps3nEyYLW5IKeZFhCoNBbjpTm0PaDJMnxKsZy9WKyWLNcpVhTUl0SMkmnbZYK5FCo72AoFoljEKiwMN3dDmlgaUwRcmcFYAoZ7CllJs3FZ6UVg/72w7XlYxbkVmMFcjN5IbSYjM6JDbtx9LTFElMkiSstnPKhSEvACuQ2kG7AZ7nEYQBnlu2WJWSbFX/qbz+dXC3JLwpKPKCPMsoiry01OJxNFVs+Fi74TqFVZvJfo3SCkdLtFAgN7PPG/hKxXg6x8uD1B7B5YHQh+04TdmeKwW9eW5hSiXMcpLNMPe2/CtBsY+KIjb1rtZopdFOmX0KKTe172bwbUvQb8mZJ3T2I7jbs2zkZQXGmPKyp21T8fS6zTOKolT2oqAwBmMtxmyv35AfUqK0Qiq5YaPEExn+TnA/4oA3AhXisdP/tN/7uXtL3dgogH1sGPz3vVX3BPzN5/alr+3MyZczyS1Pu+lsbfa3/f1PWr8B7pMLBXz7+z/2kSX96Dv+GHAfrONfaRZZy3aE9lst4f+39QVw/2f9J6x/74tu/7P+0PV/AWOxXUf0LwRXAAAAAElFTkSuQmCC;" vertex="1" parent="1">
          <mxGeometry x="269.5" y="280.5" width="51" height="15" as="geometry" />
        </mxCell>
        <mxCell id="JMNptI0SkTSTvYcWqJ-m-16" value="" style="shape=image;verticalLabelPosition=bottom;labelBackgroundColor=default;verticalAlign=top;aspect=fixed;imageAspect=0;image=data:image/png,iVBORw0KGgoAAAANSUhEUgAAAHcAAAAjCAYAAACuJpVrAAAYAElEQVR4nO2bZ3MbSbamnzRlUfCgp0jZNhMbu///b8xMTPe0DC1IEIS3ZTP3QwEkpZbUmr63e3YnbgZJ8EMVKvO8x77nlLDWWv5n/Ucu/ftuK/Xhi2ohRPnx+778v7y+VV+F+Hft8M9ZvxPcDXgb2WygxlqL+LdB+skSAoHlcUe2/LEWK/6f2eUfur4NXLuF73EJDMYYCgPGWoSQgECpEnoBj+j/4evXnsRagzUGY0qlK/ciELIEVgjxcJ4/HejPyBMECIO1G8V7es1GUYFHxfysc/rY6L7dcp9quzVYm1PkGXFakOeActBK47oaRz+1mD9riSeexCKswdiMIs3IC0uBREqNch0cLTGA/FP39+v9IrZSsqVMTYHNDYUtFdJYsAiQAikUQgqU2CimteV9D0panv+pzD8L7mdjlrVYY7AmI08T0vWU5WrNZF4Q5w5+1CCKIupViVISJeE3Y/Onx/3E0v+lXE9YMBZrC/IipUgWxKsl82lMkljwqjiViGpdECqFKx7E+q8958k+/0u5qDVYY7E2J89ziiwlTWKSdUySZmS5ITeWQkikdnA8H9fx8LTEkbL0PkohPRelNVqC+uQRv2G5D9EUYS22iElWE+bje/pXF/R6Q877gjVNDl58x8lzjeNKQl/Bg+geRLL9+dUzvi6jL91nwIJh44asoSgyTLpmvRgyvrvg/rbH1cWMWeLj7z+n9ewZz5VG+S4KUI928wft0W5/Hq6zD38twqTk+ZJ4PmM0umfUv2dwe8dwOGGySFjkllx46LBGrbNPq9mkUwmIXBctBG7o4+/vEDYi6kKhZanj2/UVcLeuocAWGUUak6ymzEa39LsXnP/8d95/uOfnnk/qnvCjaBE0d9jr8OiS7eN38cTVsElqQCA3Enl0NZ8IyZrNfVtBbQS5vQ9LkecUeUK6XrCej5j0r7n+8Dcu3l/y7uc506JO8wfNqdugsd+kCZvn//q8GIt5xGUTqh9DzNN9/vq+RyUQT2L8owwMYCmKApOtSVYzVrMhk9E9N70+ve4d/dseo+GUySpmlUMuPJyoQX08o1VrMPZ9Ii/A0QGVnTY7UQ1Zq1JVW8X5BnAFAmMyTBaTLGfMRz2GvS69mwsuLj7w9udfOOvOOZ+00Y2I3e8S1qndJFcfC41NclPkOVmWUxQWo0p34joSR8kHG7If7QCsMNgiI48TsqwgR4PWOI6Do0EUKXm8YDkdMBn2uLu55PLinA+//MTlhx7XV4bCPeRZe0Z9mZLkFvOZRM9isaagyDPy3FAUYJFoV6O0RqlSER8tXWzijQBbYIuUPM1JMkNhBcrxUI7CcRRaCbACMFiTkK1nzMd3jHtdrs4u6d4MuB2lzBMQKsJpNTk81HiOAkciMNg8plhe0r/MuM1D3MYpO6ZG/aUtLVb+2nN82XJFCYpJV8TzEaObHr3LK65vLrm+7nJz2+O2v+Ju4RCoNaukIC8Exgo+8mCCMhbmKVm8Yjmbs4wLUl1B+iHNakgUOKhtzBA8FDDG5lizJl2tmA0mrFYZiY6QQUSjUSFEoIuUdD1jMbpjcHPJ1fUVl9fXXN/ccXM35L4nEGGVxjIlTQsK87nDlglYYVKy9Zz1Oma5NGRW41YigkpAJXDwHLWxeLtVB7A5eRqTLmesFmtmi4IMB7/eIKhVqCqJlCCxmDwhiyfMBz16V2+5Orvg3U/X3PTXzEQNWe2we3TI7l6bg3aFRlXjaEMRj1ncn3N/OeVsOmCyDFHiAC+WCCvxxJN4+wThr8Zca3PybMF6MWUyXDIZA7JBtRHT6YxZZpJB4SGULDVH2F9lbCCwtsDkC5L5gMH5FXfDFSPZQjb2eXmyx+FencgVSFVmsFZYwICJKZb3zPs9Ln7pcj9MSapHBDsHPFcaKV28LCZbLpmPZ0znKbFTRXUO2MtXKAvFYEFswDEg5GfUGzZu12CyNfG8x7g/4Lq7Zpn6hHuHNPd3ONyro7V+sF6wWJNhizXpYsTo5op+b8RNH1JVpf3yOTvCwXU1viPAZhTpjNXwkv7FO/751594//6OyztLohu0Tl5x8PKU0+f7HOw16VQDIl+ilSFfjVhFhqrNScZrmPlk7Qi3FuG7Lr4QaPEYzbdH/GrMBTDWYCwYApTbpBFVcKsepCOSzNJdesSORAq5qXU/BraUnQWbkSdTFsMug6sRF8mIor4q/Ymj2at51H2FViAowKYkyyGL3jm3F5ec/9SlN5bYA4+W22QnKWiZTT1rLdZqlBsRhU2oVWlXEqomY/5LwXgu8WSZwW9D4Mf5kcVaAyalSKasxj3uL0cM5w7OLKeTWLTSSCWp+g6eMmVWnq3IVmNm911uzt9xdTmiO/Qogj1sa4/KbkFhNt+dxSSzIaPuGddvf+HdT2ec3cTMxBGVg2ccvP6e7//ygufHLfZaFSquxtMSKSx57JPKJSqNmU1T7ESzareodapUPAdfSOSmlH96ri+DawVCarRXI2oK9p43iNoxjrNkNXdQyzPGwwmBq0ml2CQQn6aUG20SAqEkUiqkzDHpmNn1gHF3SJpb5qnlhxe7nOyGVH2BNiuK9YBp74KLv/+Vs1+ueX9RMBctmrtqU6sqtFZoFUK1ReNA4zTXdAJFkoxY+wPcQZ9zT7Ocg7T2V/n7R2ooSuSVlghVYNYD5v2U9SRhMk0wKAqpOd6T6EAgiphsNWZy+4Hu2Rlv/3HOVS9hLg6oBA7CUXiuQmtRZsWrEYvBNbdvf+Hs5zPOr1eM0jrVk1NOvvuO796c8Pp5h049IApctNjW4QKlPdygSdQ8YO/YQFOxqneo7lQIfb0hZX59pi+CawUIoXG8KpWGj/IhTxIcO2ExXDG7Col8B0eLzyRDW4ltAZYI5aG9kEqtQlRx8W2fYrKg+94lLsARBcK22asJfDNlPfhA7+wdv/ztPefnUwbZDrrdIKzVqDdCQl/jOhpNgBKKpo6IbI4MLeulYryssghcfKXQVvCk7P7CYSVSueggwg8rhBWNJyeMhjcs1wbh+1gh0XIPmhKVjlgNruh+eMfZuysurqcMlx7uQYWw1aBWC6l6CleCyWLS+T2T3iXX7y+4OutzP61iGru0n73g+ZuXnJ7sctipEjgSvZFmSawJLBrh1vDre7SONDqVxGEbvxYSeKoMhRsW7puy5dJyFUr7SOmiPIXNY3QaUyxKUKXc1gtfERwgUKBD3KhN8/gVzwpYZwX6vM/Z4C238ykiW7KYH/FiBypmyOjt3+m+veTn90vGWY36yQsOvv+eF6+OOd2v0ag4eEqicBBSoxyDL3Kkk6ELzVJJhN0c+jeXxRqFVAF+ZZfGXs6zN2usFeRvB/SnF3T/VrAYzymKN0wPfYL1BcubD7z761surxcM0wa6+YzD1694+eYZR/sNGhWNqwtMPGc+6jLoXnL5oc/NbUrq16ntHrP/4ojD0w7NeoCvxSdExMZghEL4FVwULadKWAgKp4ryXAJPlnkK35gtPzJFpTtFbbIxxwVRuhopBcKKj6vmL0BbZlseTlintnuCUApTxCibs5zf0h2f0X8vWC9HrHYhLCYM/vme++spvbiNbJ3QfvUdL//yiufP2+y3QyLXQUuBEArB1oVJwJT7+5q2fXaPFilddNAkagsOigwpIItj8nTI9eCS29US5aWMBj6V+JK43+Xsw4jxwsPZ36d9+ooXr095+XKP3WZAxQWHmNV6zmJ0y+DulpvegsFMIVsdmvsHHBy22d+NqAYaLR5StS0Q5aeUCO3jhC7KrxICFg1SotWWdv21X/6dXaF/ZT3S81J6OEGdasvCa4vyIoRyaZzdcDW9Yvz2ktmHkhBYTXNQe0Svf+Do9Xf8+L9e8vpFh92GT+RqHCnK7Nx+lhr6HdsUWCnBejhejXrnhFI8Ei88Q/3jhpv7M7p/veHiHxJtE4QRZFmTcPeQk7/8yIsfXvLidIfdZkDkOWiZQZaSx1PmoztGwyH3sWGhG+w1d+js7LDbqNAM9abW/2xwK8Oe1CBAKlsqshAb72q/6DW/Edxtsf7INNkvf+dH29reLxBYoZA6xKkoGo6L47roYo1jFsz/+o5e9567uWFlI2TlGZ2TZ5y++YHX//sNr160OG5XqDii5FbLE5bh8qPYYH8f51syJgghUTpARZqmUjjKokROPOmzGt3TfX/PzbSgcCLCxjG7xy/ZPXrNyZsXvHpzyH4roBY4aAGiMNgiJl3OWYwGTCZjZoUg8WsEjRatVpNmxSNyJM6m0BC2PFMptk/6RgJ4cMJsuIgvN9/+BMvdLvvg7qVyUGGNwKxpHe0xG3eJfl4jFneMe4aJhGq1yl7nmJ3jA06P2+w1Aqq+Qoky8/1DGnViu8+yA6O9ClGrRWvRYnff4/osYTXq0ruMSfwTWkh2v+9QPzhk57DNTqtCFEgcuSFhMJg0Jl3NmY9GzGZTEtmAsILfrBE1KgSBh6skSn7tPOITAEtD+y0V/hPBfcy6rLVYk2OMoWRbBcKC3DQDQIHjonwXx5GlFWDAGJACa+Ejb/TfjLMV5oEytcaUXkpIhBQYKFtxRoLdlGOOREuQwmLNpg0nAGsxJifLEpLVkiSOyYUAz0WHHo7vobREPSkj7cOf7f9bb/R5mX6tZf77wP09whQbty5KV5WtB8zuLrj86S3vf76iN1Wk/iE7x5KaroKckffP6H6oUvcdNB3UTpXIU7hKlE1t8eXQ8Ek/6hvWQ1cUawpMviJZDJjcXnD9/oz3ZxO6Y43TeclBYFAiolIziMkd47NzrjoBvufwrB2iIhe9aYyJLQBy2+2wD4A9PFk8MOmPJrA5XOmEDaYwZXm0GYoQ4rHp8qX1TS0/PkpaSpDEg69/aM98pj3/5ADWYIscY0quenZ/zt3ZO979dM7Z+Yy53SE4OKIVKZQSzGc5Jr5hdBHyTlp8mSOtZb8ZUqs4eEo9cNGfLoF42MuGyHw4xpNTfLLFTQPAGop0TbK8Z3LXpfv+Ax/e33B1WzAzu3Rev2LXcwiKNTKHJBmyvD2j+zZAS4EyeyBqVAMPh2056eGGIX7g42JJs5h0uWK5XLJK6iS5QQuBlqXFW8ymxWrIi4wiy8nygsKCcFyk1rhaIX9j0uUbLPcJsEKBVCilkA9dEoFAIoRCKlU26p8qAiCEwZqcIlsQL/qMbi+5+ukfXPxyyT/fzxkt63jPnrN/uMNBWxGwZHJ1wbA/4XbwjtvVHJknrJOM5HSP490a9YpL6CrUR+iWXVopSwWRcjOdsLEcudm7UuJxCkNskhhrMEWBzVbEs3uGN2cl8/TzBVc3C8amTXDc4dkPJ3R2fML4jmTQp/u+z3h2Tf+tIFnFmDwjzY842q3RDMHTIV61Qb2zS6PRo3KRspwOmfRuuesd0D+p0WlXcPQmCQMEEkSOzdfEixmrxYr5PCXFRTfq+FFEPVCErkB9pRT9hkmMTRwUEptliDQlSTLSdKNNRYaxm+mMNCFNfbKiTBBKWkxgbIEpYrL1hHn/mv7FB85/vuD8fMxoUcXWjtl78Reef3/E6Z4kysfM6nD1rqB4O6I3ibk7c7FC4+ptG07i6DJrLl2XxdoMKTOyJCFNUrIsJTNF+ZtnpFlCkqYkSUGu5UcjK2VMT8hXY+ajW3qX51ydXXF5s2C48tCdE/aev+TH//OS4wMfP75h0T3Dy2MuzobcTroMMoPje6BKetTRIdr18SpNmrtH7O7fs/P+hsVwwWp4S+/qiuujKrXIQZgIW3HQUiJMhs1j4uWM+WjEdLJkOjdkTkCgfRp+SPUbypWvWO7GTZkCU+TkWUa6nlPMBwzvh4zGUybTBeu5w1qMmU2GDAd3DAaGmhcR+G55QEchbY7NFsTTPv3zD1z985KLbsIwbVF98ZqdV2948+MJJydNdqoC39RpVRRRtYJyfqZ6OeZ2ecvoXHIRuCgvIPBcQk8jNWiTk+U5eb4iNXNmw3uG9yOGoymT1YJpahHzKZPhiNFgxLjuoPyAiufgaoVSFkWBSZesZ7eMe+dcnXW56i5ZiSaVgwOOv/+B09cnvDrtsNvQqFSxchWiMPjBBeKffe5ndwwvQhCKMPTwA4eg5eJELVqHrzk+nfPiOiYxMwaza+4+KH6qQJYsWZ602W9FVFyBthlFsmS9mDEajJgvM1a2glsN8IVECfkYwn8XuJvMz5iUPF6xms+ZTwcsRrf0uj1u72eMZ2vSJMPIGfPJDf3bJtdRhmtbNJp1qlWfSuTiiAKTx6TJguVkznyWEFNDtw84+PFHXv/lFc+Pmuy3fEIPtA2woYcfeCgyfPeC4t2S+2RCPJ8zna9YpTmZAc/k5NmaZDVnsZgwXY0Z9Lr0ru/pDefM85SV1ajFiNF9j7urCjUP8maTVq1KveLjC4GkwJqMLJ6zWiyYLQriIiRoH9F69orXP5zy/Pkee42QyAPhlUMGCoPWijTOEFcLhumc1WjKYh6zSgoy6+H7DaqdE/ZPl7zuL0mLa0w/Yb7ocXfuYc2aYrXDtBNR8zSuKEea0jhmuViRGI0IHDzPx3M0gaNQGx75a/h+fRIDg8li4uWI8c01/etLbu5uuLy54rw74W6Wk5kcwYjJ/Tsu3hlUMmYxOeL49JCDww57WhH5ZVxWKsANO9R3NUfNJjQOefXjM06ft+hUPSqewlECaQWEisjCwesC6dXJ1S3NqYBWQM0vKVCLgTyliGcsRl16vS4X3Vuur6+5P+9y050ztpbEyxGLPvdX73jnJGSrBfPnLzg+kiAdlNJldisFQvt4lRaNPY2JPML9EzrPjjk9bLFT9wm1LBM55eH6NaLOETtWkmfg1yZcD11sUA4gaKUQQiJ1gN84oHVseJ1YnKhJeHbHzXjNLOsxupyQTCpcVQIqrkvgunhhBS8I8YOISr1BvbVDu92iXa+UFYPezGX/PhJjy0YZijQlXc1ZzktXPFsaUlXFa2gOXEuOT1ApEMWcxWzGZNyg3k5oJDl5YbBIhPJRQYNa54hUdwi8HZzmLqfPWuy2/bJ7s9VGoUoOO2xR2xNIXSUvqjQmKWnUxm0ERK4qExBrKIqULC7d2GQ0ZTRaMo9dCq9F9aiOa1x05BHIjGyxYDGeMe+sWcU5WW420yMSqTx0UCdsWvae7VAzIbX9PVq7LTrNCpGrnhD7EqkC3IqghkJYhVed4t8VpKJCo+lT8RRKSqT0kH6TaEdwJBVuVMevX9K86XPdXzBalR5jkcckyiUMIyoiQIUhfm2H5k6b3U6TZr1KveIQOOV0x2/0a34DXCGQ0sUJqlRae7QLiYl2CPdXHMUJcVKQG4tBoRwH148IvSa1eofd3Yh65G1SdonUFYKqoH0SEO4VZG6EDirUqltgt019sSUry26P18BvOhy8DKnHKZmuoIKybehJgUQj3QpBrUNr13BkI7zqPvFpSpqkpAUYJEK7OK6P70dEjTbt3TqtqkvogpYACqFC/Oo+TdXAqVkKXIIowq/4BG7JjpXchC2zbCGQwsf1odqR6LBN0CoorItXqxFWHFwJ1gqk8nCDBrUdB+3XCBt77J5MOZ0smK9S4sJS2HI+2XUDgqhOpdag3mhQr1epVnxC38FVEvlkLPdrS3zuRbBy8xZbFJgiJYtj1vMZq+WKRZwS5wX5Zqb0kT0ux7ylDHDcsm9bqYZl0uIqFPZhSM5YAVIhdGmtUm5Lps3nEyYLW5IKeZFhCoNBbjpTm0PaDJMnxKsZy9WKyWLNcpVhTUl0SMkmnbZYK5FCo72AoFoljEKiwMN3dDmlgaUwRcmcFYAoZ7CllJs3FZ6UVg/72w7XlYxbkVmMFcjN5IbSYjM6JDbtx9LTFElMkiSstnPKhSEvACuQ2kG7AZ7nEYQBnlu2WJWSbFX/qbz+dXC3JLwpKPKCPMsoiry01OJxNFVs+Fi74TqFVZvJfo3SCkdLtFAgN7PPG/hKxXg6x8uD1B7B5YHQh+04TdmeKwW9eW5hSiXMcpLNMPe2/CtBsY+KIjb1rtZopdFOmX0KKTe172bwbUvQb8mZJ3T2I7jbs2zkZQXGmPKyp21T8fS6zTOKolT2oqAwBmMtxmyv35AfUqK0Qiq5YaPEExn+TnA/4oA3AhXisdP/tN/7uXtL3dgogH1sGPz3vVX3BPzN5/alr+3MyZczyS1Pu+lsbfa3/f1PWr8B7pMLBXz7+z/2kSX96Dv+GHAfrONfaRZZy3aE9lst4f+39QVw/2f9J6x/74tu/7P+0PV/AWOxXUf0LwRXAAAAAElFTkSuQmCC;" vertex="1" parent="1">
          <mxGeometry x="484.5" y="280.5" width="51" height="15" as="geometry" />
        </mxCell>
        <mxCell id="JMNptI0SkTSTvYcWqJ-m-17" value="" style="shape=image;verticalLabelPosition=bottom;labelBackgroundColor=default;verticalAlign=top;aspect=fixed;imageAspect=0;image=data:image/png,iVBORw0KGgoAAAANSUhEUgAAAHcAAAAjCAYAAACuJpVrAAAYAElEQVR4nO2bZ3MbSbamnzRlUfCgp0jZNhMbu///b8xMTPe0DC1IEIS3ZTP3QwEkpZbUmr63e3YnbgZJ8EMVKvO8x77nlLDWWv5n/Ucu/ftuK/Xhi2ohRPnx+778v7y+VV+F+Hft8M9ZvxPcDXgb2WygxlqL+LdB+skSAoHlcUe2/LEWK/6f2eUfur4NXLuF73EJDMYYCgPGWoSQgECpEnoBj+j/4evXnsRagzUGY0qlK/ciELIEVgjxcJ4/HejPyBMECIO1G8V7es1GUYFHxfysc/rY6L7dcp9quzVYm1PkGXFakOeActBK47oaRz+1mD9riSeexCKswdiMIs3IC0uBREqNch0cLTGA/FP39+v9IrZSsqVMTYHNDYUtFdJYsAiQAikUQgqU2CimteV9D0panv+pzD8L7mdjlrVYY7AmI08T0vWU5WrNZF4Q5w5+1CCKIupViVISJeE3Y/Onx/3E0v+lXE9YMBZrC/IipUgWxKsl82lMkljwqjiViGpdECqFKx7E+q8958k+/0u5qDVYY7E2J89ziiwlTWKSdUySZmS5ITeWQkikdnA8H9fx8LTEkbL0PkohPRelNVqC+uQRv2G5D9EUYS22iElWE+bje/pXF/R6Q877gjVNDl58x8lzjeNKQl/Bg+geRLL9+dUzvi6jL91nwIJh44asoSgyTLpmvRgyvrvg/rbH1cWMWeLj7z+n9ewZz5VG+S4KUI928wft0W5/Hq6zD38twqTk+ZJ4PmM0umfUv2dwe8dwOGGySFjkllx46LBGrbNPq9mkUwmIXBctBG7o4+/vEDYi6kKhZanj2/UVcLeuocAWGUUak6ymzEa39LsXnP/8d95/uOfnnk/qnvCjaBE0d9jr8OiS7eN38cTVsElqQCA3Enl0NZ8IyZrNfVtBbQS5vQ9LkecUeUK6XrCej5j0r7n+8Dcu3l/y7uc506JO8wfNqdugsd+kCZvn//q8GIt5xGUTqh9DzNN9/vq+RyUQT2L8owwMYCmKApOtSVYzVrMhk9E9N70+ve4d/dseo+GUySpmlUMuPJyoQX08o1VrMPZ9Ii/A0QGVnTY7UQ1Zq1JVW8X5BnAFAmMyTBaTLGfMRz2GvS69mwsuLj7w9udfOOvOOZ+00Y2I3e8S1qndJFcfC41NclPkOVmWUxQWo0p34joSR8kHG7If7QCsMNgiI48TsqwgR4PWOI6Do0EUKXm8YDkdMBn2uLu55PLinA+//MTlhx7XV4bCPeRZe0Z9mZLkFvOZRM9isaagyDPy3FAUYJFoV6O0RqlSER8tXWzijQBbYIuUPM1JMkNhBcrxUI7CcRRaCbACMFiTkK1nzMd3jHtdrs4u6d4MuB2lzBMQKsJpNTk81HiOAkciMNg8plhe0r/MuM1D3MYpO6ZG/aUtLVb+2nN82XJFCYpJV8TzEaObHr3LK65vLrm+7nJz2+O2v+Ju4RCoNaukIC8Exgo+8mCCMhbmKVm8Yjmbs4wLUl1B+iHNakgUOKhtzBA8FDDG5lizJl2tmA0mrFYZiY6QQUSjUSFEoIuUdD1jMbpjcHPJ1fUVl9fXXN/ccXM35L4nEGGVxjIlTQsK87nDlglYYVKy9Zz1Oma5NGRW41YigkpAJXDwHLWxeLtVB7A5eRqTLmesFmtmi4IMB7/eIKhVqCqJlCCxmDwhiyfMBz16V2+5Orvg3U/X3PTXzEQNWe2we3TI7l6bg3aFRlXjaEMRj1ncn3N/OeVsOmCyDFHiAC+WCCvxxJN4+wThr8Zca3PybMF6MWUyXDIZA7JBtRHT6YxZZpJB4SGULDVH2F9lbCCwtsDkC5L5gMH5FXfDFSPZQjb2eXmyx+FencgVSFVmsFZYwICJKZb3zPs9Ln7pcj9MSapHBDsHPFcaKV28LCZbLpmPZ0znKbFTRXUO2MtXKAvFYEFswDEg5GfUGzZu12CyNfG8x7g/4Lq7Zpn6hHuHNPd3ONyro7V+sF6wWJNhizXpYsTo5op+b8RNH1JVpf3yOTvCwXU1viPAZhTpjNXwkv7FO/751594//6OyztLohu0Tl5x8PKU0+f7HOw16VQDIl+ilSFfjVhFhqrNScZrmPlk7Qi3FuG7Lr4QaPEYzbdH/GrMBTDWYCwYApTbpBFVcKsepCOSzNJdesSORAq5qXU/BraUnQWbkSdTFsMug6sRF8mIor4q/Ymj2at51H2FViAowKYkyyGL3jm3F5ec/9SlN5bYA4+W22QnKWiZTT1rLdZqlBsRhU2oVWlXEqomY/5LwXgu8WSZwW9D4Mf5kcVaAyalSKasxj3uL0cM5w7OLKeTWLTSSCWp+g6eMmVWnq3IVmNm911uzt9xdTmiO/Qogj1sa4/KbkFhNt+dxSSzIaPuGddvf+HdT2ec3cTMxBGVg2ccvP6e7//ygufHLfZaFSquxtMSKSx57JPKJSqNmU1T7ESzareodapUPAdfSOSmlH96ri+DawVCarRXI2oK9p43iNoxjrNkNXdQyzPGwwmBq0ml2CQQn6aUG20SAqEkUiqkzDHpmNn1gHF3SJpb5qnlhxe7nOyGVH2BNiuK9YBp74KLv/+Vs1+ueX9RMBctmrtqU6sqtFZoFUK1ReNA4zTXdAJFkoxY+wPcQZ9zT7Ocg7T2V/n7R2ooSuSVlghVYNYD5v2U9SRhMk0wKAqpOd6T6EAgiphsNWZy+4Hu2Rlv/3HOVS9hLg6oBA7CUXiuQmtRZsWrEYvBNbdvf+Hs5zPOr1eM0jrVk1NOvvuO796c8Pp5h049IApctNjW4QKlPdygSdQ8YO/YQFOxqneo7lQIfb0hZX59pi+CawUIoXG8KpWGj/IhTxIcO2ExXDG7Col8B0eLzyRDW4ltAZYI5aG9kEqtQlRx8W2fYrKg+94lLsARBcK22asJfDNlPfhA7+wdv/ztPefnUwbZDrrdIKzVqDdCQl/jOhpNgBKKpo6IbI4MLeulYryssghcfKXQVvCk7P7CYSVSueggwg8rhBWNJyeMhjcs1wbh+1gh0XIPmhKVjlgNruh+eMfZuysurqcMlx7uQYWw1aBWC6l6CleCyWLS+T2T3iXX7y+4OutzP61iGru0n73g+ZuXnJ7sctipEjgSvZFmSawJLBrh1vDre7SONDqVxGEbvxYSeKoMhRsW7puy5dJyFUr7SOmiPIXNY3QaUyxKUKXc1gtfERwgUKBD3KhN8/gVzwpYZwX6vM/Z4C238ykiW7KYH/FiBypmyOjt3+m+veTn90vGWY36yQsOvv+eF6+OOd2v0ag4eEqicBBSoxyDL3Kkk6ELzVJJhN0c+jeXxRqFVAF+ZZfGXs6zN2usFeRvB/SnF3T/VrAYzymKN0wPfYL1BcubD7z761surxcM0wa6+YzD1694+eYZR/sNGhWNqwtMPGc+6jLoXnL5oc/NbUrq16ntHrP/4ojD0w7NeoCvxSdExMZghEL4FVwULadKWAgKp4ryXAJPlnkK35gtPzJFpTtFbbIxxwVRuhopBcKKj6vmL0BbZlseTlintnuCUApTxCibs5zf0h2f0X8vWC9HrHYhLCYM/vme++spvbiNbJ3QfvUdL//yiufP2+y3QyLXQUuBEArB1oVJwJT7+5q2fXaPFilddNAkagsOigwpIItj8nTI9eCS29US5aWMBj6V+JK43+Xsw4jxwsPZ36d9+ooXr095+XKP3WZAxQWHmNV6zmJ0y+DulpvegsFMIVsdmvsHHBy22d+NqAYaLR5StS0Q5aeUCO3jhC7KrxICFg1SotWWdv21X/6dXaF/ZT3S81J6OEGdasvCa4vyIoRyaZzdcDW9Yvz2ktmHkhBYTXNQe0Svf+Do9Xf8+L9e8vpFh92GT+RqHCnK7Nx+lhr6HdsUWCnBejhejXrnhFI8Ei88Q/3jhpv7M7p/veHiHxJtE4QRZFmTcPeQk7/8yIsfXvLidIfdZkDkOWiZQZaSx1PmoztGwyH3sWGhG+w1d+js7LDbqNAM9abW/2xwK8Oe1CBAKlsqshAb72q/6DW/Edxtsf7INNkvf+dH29reLxBYoZA6xKkoGo6L47roYo1jFsz/+o5e9567uWFlI2TlGZ2TZ5y++YHX//sNr160OG5XqDii5FbLE5bh8qPYYH8f51syJgghUTpARZqmUjjKokROPOmzGt3TfX/PzbSgcCLCxjG7xy/ZPXrNyZsXvHpzyH4roBY4aAGiMNgiJl3OWYwGTCZjZoUg8WsEjRatVpNmxSNyJM6m0BC2PFMptk/6RgJ4cMJsuIgvN9/+BMvdLvvg7qVyUGGNwKxpHe0xG3eJfl4jFneMe4aJhGq1yl7nmJ3jA06P2+w1Aqq+Qoky8/1DGnViu8+yA6O9ClGrRWvRYnff4/osYTXq0ruMSfwTWkh2v+9QPzhk57DNTqtCFEgcuSFhMJg0Jl3NmY9GzGZTEtmAsILfrBE1KgSBh6skSn7tPOITAEtD+y0V/hPBfcy6rLVYk2OMoWRbBcKC3DQDQIHjonwXx5GlFWDAGJACa+Ejb/TfjLMV5oEytcaUXkpIhBQYKFtxRoLdlGOOREuQwmLNpg0nAGsxJifLEpLVkiSOyYUAz0WHHo7vobREPSkj7cOf7f9bb/R5mX6tZf77wP09whQbty5KV5WtB8zuLrj86S3vf76iN1Wk/iE7x5KaroKckffP6H6oUvcdNB3UTpXIU7hKlE1t8eXQ8Ek/6hvWQ1cUawpMviJZDJjcXnD9/oz3ZxO6Y43TeclBYFAiolIziMkd47NzrjoBvufwrB2iIhe9aYyJLQBy2+2wD4A9PFk8MOmPJrA5XOmEDaYwZXm0GYoQ4rHp8qX1TS0/PkpaSpDEg69/aM98pj3/5ADWYIscY0quenZ/zt3ZO979dM7Z+Yy53SE4OKIVKZQSzGc5Jr5hdBHyTlp8mSOtZb8ZUqs4eEo9cNGfLoF42MuGyHw4xpNTfLLFTQPAGop0TbK8Z3LXpfv+Ax/e33B1WzAzu3Rev2LXcwiKNTKHJBmyvD2j+zZAS4EyeyBqVAMPh2056eGGIX7g42JJs5h0uWK5XLJK6iS5QQuBlqXFW8ymxWrIi4wiy8nygsKCcFyk1rhaIX9j0uUbLPcJsEKBVCilkA9dEoFAIoRCKlU26p8qAiCEwZqcIlsQL/qMbi+5+ukfXPxyyT/fzxkt63jPnrN/uMNBWxGwZHJ1wbA/4XbwjtvVHJknrJOM5HSP490a9YpL6CrUR+iWXVopSwWRcjOdsLEcudm7UuJxCkNskhhrMEWBzVbEs3uGN2cl8/TzBVc3C8amTXDc4dkPJ3R2fML4jmTQp/u+z3h2Tf+tIFnFmDwjzY842q3RDMHTIV61Qb2zS6PRo3KRspwOmfRuuesd0D+p0WlXcPQmCQMEEkSOzdfEixmrxYr5PCXFRTfq+FFEPVCErkB9pRT9hkmMTRwUEptliDQlSTLSdKNNRYaxm+mMNCFNfbKiTBBKWkxgbIEpYrL1hHn/mv7FB85/vuD8fMxoUcXWjtl78Reef3/E6Z4kysfM6nD1rqB4O6I3ibk7c7FC4+ptG07i6DJrLl2XxdoMKTOyJCFNUrIsJTNF+ZtnpFlCkqYkSUGu5UcjK2VMT8hXY+ajW3qX51ydXXF5s2C48tCdE/aev+TH//OS4wMfP75h0T3Dy2MuzobcTroMMoPje6BKetTRIdr18SpNmrtH7O7fs/P+hsVwwWp4S+/qiuujKrXIQZgIW3HQUiJMhs1j4uWM+WjEdLJkOjdkTkCgfRp+SPUbypWvWO7GTZkCU+TkWUa6nlPMBwzvh4zGUybTBeu5w1qMmU2GDAd3DAaGmhcR+G55QEchbY7NFsTTPv3zD1z985KLbsIwbVF98ZqdV2948+MJJydNdqoC39RpVRRRtYJyfqZ6OeZ2ecvoXHIRuCgvIPBcQk8jNWiTk+U5eb4iNXNmw3uG9yOGoymT1YJpahHzKZPhiNFgxLjuoPyAiufgaoVSFkWBSZesZ7eMe+dcnXW56i5ZiSaVgwOOv/+B09cnvDrtsNvQqFSxchWiMPjBBeKffe5ndwwvQhCKMPTwA4eg5eJELVqHrzk+nfPiOiYxMwaza+4+KH6qQJYsWZ602W9FVFyBthlFsmS9mDEajJgvM1a2glsN8IVECfkYwn8XuJvMz5iUPF6xms+ZTwcsRrf0uj1u72eMZ2vSJMPIGfPJDf3bJtdRhmtbNJp1qlWfSuTiiAKTx6TJguVkznyWEFNDtw84+PFHXv/lFc+Pmuy3fEIPtA2woYcfeCgyfPeC4t2S+2RCPJ8zna9YpTmZAc/k5NmaZDVnsZgwXY0Z9Lr0ru/pDefM85SV1ajFiNF9j7urCjUP8maTVq1KveLjC4GkwJqMLJ6zWiyYLQriIiRoH9F69orXP5zy/Pkee42QyAPhlUMGCoPWijTOEFcLhumc1WjKYh6zSgoy6+H7DaqdE/ZPl7zuL0mLa0w/Yb7ocXfuYc2aYrXDtBNR8zSuKEea0jhmuViRGI0IHDzPx3M0gaNQGx75a/h+fRIDg8li4uWI8c01/etLbu5uuLy54rw74W6Wk5kcwYjJ/Tsu3hlUMmYxOeL49JCDww57WhH5ZVxWKsANO9R3NUfNJjQOefXjM06ft+hUPSqewlECaQWEisjCwesC6dXJ1S3NqYBWQM0vKVCLgTyliGcsRl16vS4X3Vuur6+5P+9y050ztpbEyxGLPvdX73jnJGSrBfPnLzg+kiAdlNJldisFQvt4lRaNPY2JPML9EzrPjjk9bLFT9wm1LBM55eH6NaLOETtWkmfg1yZcD11sUA4gaKUQQiJ1gN84oHVseJ1YnKhJeHbHzXjNLOsxupyQTCpcVQIqrkvgunhhBS8I8YOISr1BvbVDu92iXa+UFYPezGX/PhJjy0YZijQlXc1ZzktXPFsaUlXFa2gOXEuOT1ApEMWcxWzGZNyg3k5oJDl5YbBIhPJRQYNa54hUdwi8HZzmLqfPWuy2/bJ7s9VGoUoOO2xR2xNIXSUvqjQmKWnUxm0ERK4qExBrKIqULC7d2GQ0ZTRaMo9dCq9F9aiOa1x05BHIjGyxYDGeMe+sWcU5WW420yMSqTx0UCdsWvae7VAzIbX9PVq7LTrNCpGrnhD7EqkC3IqghkJYhVed4t8VpKJCo+lT8RRKSqT0kH6TaEdwJBVuVMevX9K86XPdXzBalR5jkcckyiUMIyoiQIUhfm2H5k6b3U6TZr1KveIQOOV0x2/0a34DXCGQ0sUJqlRae7QLiYl2CPdXHMUJcVKQG4tBoRwH148IvSa1eofd3Yh65G1SdonUFYKqoH0SEO4VZG6EDirUqltgt019sSUry26P18BvOhy8DKnHKZmuoIKybehJgUQj3QpBrUNr13BkI7zqPvFpSpqkpAUYJEK7OK6P70dEjTbt3TqtqkvogpYACqFC/Oo+TdXAqVkKXIIowq/4BG7JjpXchC2zbCGQwsf1odqR6LBN0CoorItXqxFWHFwJ1gqk8nCDBrUdB+3XCBt77J5MOZ0smK9S4sJS2HI+2XUDgqhOpdag3mhQr1epVnxC38FVEvlkLPdrS3zuRbBy8xZbFJgiJYtj1vMZq+WKRZwS5wX5Zqb0kT0ux7ylDHDcsm9bqYZl0uIqFPZhSM5YAVIhdGmtUm5Lps3nEyYLW5IKeZFhCoNBbjpTm0PaDJMnxKsZy9WKyWLNcpVhTUl0SMkmnbZYK5FCo72AoFoljEKiwMN3dDmlgaUwRcmcFYAoZ7CllJs3FZ6UVg/72w7XlYxbkVmMFcjN5IbSYjM6JDbtx9LTFElMkiSstnPKhSEvACuQ2kG7AZ7nEYQBnlu2WJWSbFX/qbz+dXC3JLwpKPKCPMsoiry01OJxNFVs+Fi74TqFVZvJfo3SCkdLtFAgN7PPG/hKxXg6x8uD1B7B5YHQh+04TdmeKwW9eW5hSiXMcpLNMPe2/CtBsY+KIjb1rtZopdFOmX0KKTe172bwbUvQb8mZJ3T2I7jbs2zkZQXGmPKyp21T8fS6zTOKolT2oqAwBmMtxmyv35AfUqK0Qiq5YaPEExn+TnA/4oA3AhXisdP/tN/7uXtL3dgogH1sGPz3vVX3BPzN5/alr+3MyZczyS1Pu+lsbfa3/f1PWr8B7pMLBXz7+z/2kSX96Dv+GHAfrONfaRZZy3aE9lst4f+39QVw/2f9J6x/74tu/7P+0PV/AWOxXUf0LwRXAAAAAElFTkSuQmCC;" vertex="1" parent="1">
          <mxGeometry x="550" y="280.5" width="51" height="15" as="geometry" />
        </mxCell>
        <mxCell id="JMNptI0SkTSTvYcWqJ-m-18" value="" style="shape=image;verticalLabelPosition=bottom;labelBackgroundColor=default;verticalAlign=top;aspect=fixed;imageAspect=0;image=data:image/png,iVBORw0KGgoAAAANSUhEUgAAAH0AAABPCAYAAADGMsqDAAAex0lEQVR4nO2deXPbuNbmfwC4S9Quec+edPd971TNzPf/BlNTt+qtvrc7q/dNlmTtlLgA8wcp20mcbvcSJ1PlJ6tlkwT54AAH5zwHFMYYwwO+G3xMh0CIv/8a1t9/ygf8fTDkfUCsft/yvRziD/SOB9K/GxhWlm0Q+dc6Q2eaNE3IMk2myYkWAiElUllYlsJSAmEMxmgEAoTACIHIzwj5IVd4IP07Q269KTpLSOOYeLkkiuYsFjFJasgMGBTKdnGCANdxCGyJJcFkBqRAOA7SslCA/GyEeCD9m8MYk1suAkyGyRLSZMpiOmZ0OWZ4ecll/5LRZM5smRJnYJSLU6oQNlpUymXqjiRQCqRCeT5uvYJXEviWwuaB9O8TxmB0SpYuiKMxs9EFl/0uZyc9uud9LroDhuMps2XC0kiMHeCWK1TaazTKIQ0kZdvF8kP8Zp2a41L1PSwNtkU+c9zAA+nfCPncDGDApCTLMdHwlN7ZMUfvP3B01OfsMmGSgFA2tt+iVrOwHIWUgNDoxQmjXsJ5V2OJCpWd53RelnE3NDVjEMIU/sHHeCD9W8IYdJZgkinz4Snd/f+w++Y1//6/H9g/mTGUDez6BlvPtmltr7HZDqmVFbaIWAzP6O3/wuHRCSe/RsyzDmvWOta6YCcTKJHP5/KWyz6Qfs9YzeGYDGMS0mjIvH/Iyf4bfv3vn3n75ojdg5iprlLefsz6s6c8f/WYR1tt1hoBoS+wWLAYOpSTLvpyyGklJo4lIvDA93GUhSskSogH0r8XCGPQOsWkUxbDU7q7P/Ph3//mX//nLR+OYubWI6pbL3j2z3/y6r+e8OxRm/V2SNm1cBVIoUl8i0rcRSxiumMPO6pR3qpTbpTxXAdHCOzielczSYEH0u8NxaMXBmMMOp2TTC4Ynu9x8OY1b/+zx4eDhF5cZ+3VC5781z959dMzXj1bo9MMqPgOtlwN1wrHLUOlQ70TsfXUxV6GOJs16nUf37VQQoApgjqfTOsPpN83TO64ZfGM+eCEwdEuH37d5f37Ad1ZC9l6xvZP/+Af/+sHfnjVYrtTxrMEljRIisCNAS1sZNCk1MrYTCv4qY9q1ajUXTxHIgUgPrXxHA+k3xdWz99ojI6IoyHD82PO9o452Btw1tPoSpvm46dsPdvm0eMWrXpAyZGoT85jMBhlI/wGftNmzW4RGhtRquCXLHxHIEQepbuF8wfS7w+rp59i0jnL2YDB+QmnR2ecni2YLEPK6zts/fCE7Sct1toBgasKwm8uvQwYgxAK3AquCmj6mhqA7aEshaMEUtxOODyQ/tVhbkRGBKCzhGw5YTkdcNnrcjEYMZhbLFWNjfYam5ttOs0SlZLCtcTVkTcozz8REmM5KOXgOmb1IUiBNIIvMs4D6fcGIwpisoxsMWM5ueRyOGAwmTHFR5RbNJtNNttVGmWHkiVQxZzw6cwsxOqz3FFTn17sdxJuD6TfC/KsmTGQpSlpNCUaD5mMhoyjJUunhqrVCBsVGtUSZdfCAeQqQ3bbGVcuubgeBVa51t8TSDyQfo8QaDAp6TJiGc2JZnMWSUzqu9iVEn7oE3g2rhSfW++XYMzvkvwpHki/ZxhjMGmGThOyLCE1GZmSCMfBdmw828JRt8XRcvwRscSX8OWzP+CrQCCQUiKVQiqFkhJpNEan6CwlzTSZ/g3bNeYz6zbF13e1+AdLv0cIJEJZWEGAX64QVsoE9hQ1mJL0evQvhnSHMzbXHCpYt5BjMFlMGs1YREtm85REWFjVCp7vEdgK53qq/yIeSL8vFEEVaVk45SqleotGc412ZUr5cMa0f8rp8TG7x2u0OzZ+SVFRAlcVxxoNJiGJZkT9C0bDCd1+wtIqUdqxqLVdlDTYtkD+jsk/kH4vMIhC/yaUg/Bq+LV11jYfsX0+Z/vslKNJn8vDN7wp2wR2xHK+zkbFperZWNIgdIxOIhbTEcOLAePJkvHSR5YDfEAh8tDrHfBA+j3CIBDCQtpVvOo67UfPeTJe0h1EpAcTesNDTt6Aq5JcLrVRpVNx8RVYJiZdTphPpwwvZ8wThQnKhK6PZ9v4Fqhb9HC34YH0r4zPYmlSIfCw/Sb19WdsLuCnpcAOT9m/WDJO+0y779jPBsx6ISdlj5Jt4VoKSxlAkhkPuxRSbjSptapUfRvfEqwCeLenWa7xQPp9wqys3cb2QoLmDh3hYCyPUr1J/eCUk96EQTxhPog4m7lcui6BGxAEJYJSSLlaJaw2qDeatNoN6rWQWsnBl/nw/oUcy0f4S6QbuL7KVfj3K5Rk/GXcXOZ87N7eW2uvDL7IgEkHy6tQqgvWpI0X1qg011kbjOnPE+aJyaXOloVtu7heCT+sUA6rVKtVatUKtWqZku/g2QopRB6wvcMNiTuXNa3Wh0bnIgCK3K4Q+QVX4vrvhHRjAKPRWmNW614pEbJo632TXnS5q6dtDNpodJaik5gkjlhEM6JozmyeECVZXtyAQIhC5+4HeJ5PEHj4roNnW9i2/Lig4Q739RnpV8t+I1YRY0Cjs5gkWpAsFyzijMQopOvjuD6eY+HYed5X3NWF/Iv4qNmrkUZQaMfjvJ2zBctlRoaDdBzcko/n21hCIIXkxjO6P1zFxw3GCEAXA1GKTlLSLCFJU5JUo7VBm9ywhFJYlpNbvlLYVq6KlaLw3sznlSxfwheHd1M0RmcpaRqxnE+YDnpMhhNGM81S+gTNNSoNRTPMS2ukuk/LKdppzNU61ugUnSxYLi6ZDof0TwdMZ4bMaeJWG7Q3FcK1kKrooPfc1o9RlDBdSZpslGuj8HE/HRVWR9zCqDHmhrN4N1yRbswNn08YjMnQyYJ4PmJ8eUG/e8LJ7j6n5yN6UxsddNj8QfFIlnBdh8ArHuPNEKH4UnOui++ubuSGBVDouz6+R3N1g3nIcWXeeaFAmkQsZyMml136Z3ucH5+w927AeG5jt36g9eQ5puzjVHwcBbYo2nCdoP7ttn76wM01MUJ8WmCYH3PTi76ZFbt5fP75n6lO/bSA8e5HfmLpqzk7I0sWxNMB4/4p54e7HH54x68//8Le0YizRR279YJ/BBt4rU3aDZ0PQ+aaDl3c2JcdhltutDjemOKh6Y9+PA9uXC1L8utkOkUnM6LJgFH3mPOjXfbe/cyHN/u8/neP0aJG7YXHE9mi/qRDUxtCky99EOaaPP0bbf1Ch8jbaT4rL75u8JeP/eRMn1n118RHpAuj0dkSnUyJxj0uTk44PdrncG+X/Q+7vH39juPunAEJJdVhax6zTDWZ/th5MBiMztBpSpamLBYpmQbhuFiOjWMrbFX08BsdQ6y6i0nIFgmzyYI41hjLRbkuXpAfqyRINCZLSKIxs8tzLs+POT4+4GDvA7vv3rL77pgP78YsTUxWn9CaxcSJztt27fqgyTu5SVLSeEGcZCSZhZEOrm/jOBZKFZkpY66Ou+p8OiFdRqRxTBQLNBaW5+E4NrYl82NvIf5bOrw3SC+sNIvR8z7R4Iizo3123x9yeHjK8WmfXn/IZLJk7i6w0owUgy5kvQKKYXk17GVkyYxoOmPQmzFfkgv3KmWqFZ8wcLBu3nixOtA6QccT5uMJ5wdDxlMNYR2/UaMlS1QsiRQyn37SiHQ+ZHJxTPdoj8PDY/aPzzi5GHIxnDEZzclETBynuUWKLwQudJq3ddRnOlkwjDy0FVBrVghrAb5j4dgfpySNyZMfyWJKNOoxHc25nElSWSJs1inXyoRKoIS8f2fxd/Dx8G4MJkvIoinxbMp0LpibMm5zk7aQMO/hiAE6FSihCys1iE9GNwGgE7JlboVn78/oDpYkQZugvc72ozXW16tUPQvPLvQhRhcVH2Nmw2O6x2f8+t89ekOBs/OM5hMb23fxSy4WBmV0nnGKlyymS5YxSL9KpZOxLRMcbUj3IsazBJXpK+nwrSoUk6LjMdHggO5Jn90zi4gaa88esb7TZq1RolpysFQubhACdLYkXYyY9c853/tAtzvmbFqGoMUGDpu+j+8qrioOviPcMqcbTJaBsRBeHa9doeJqzKxB25xRUUuWlzYzSxa1z5+uC1dDdEaWzllM+/SPP3B0MGZs9XDW5sRGgFLIZglZtrElmCxBL8fMh116R7scvD3g9b8HnE8C6rKOabZZTzQpFM6cKDoKIB3soEY97BCsryOmHj1HsPzvHkczjSeK4VTCpxICUSxJTRIRT7qMzw44+DVlkNQYxoa5yR1GqULKjkJaAkxKspgwG5xwcbjH7uvXHJ5OOU86uC0bd21Jo6gl/22J4rfBx6QLgZAuVtCi1HLZciXlKMWWM5b9CHXgM3AlliVuFLvf5oEIEBJlubieS6kk8e05vcEhk+kcZTRpnJE9XydbD6m6oNIJs8ExF4d7fHizy+5un95ckQUhpVqZWtUn8CxsuQpCSITl4wR1qusCq9amYQuSeMjyrI8uufiWwlo9+Bsd9NO2CmEhLQ/HL+P5Di6X6MmE7q4kzWJk9hSjDRutAOMbZDzKU6Hv33DwYZ93q7bWAsIwpFx2CRyFJWW+nLxjIuS+cIN0gTEK4fhYlQ3Ccgd3TRHHEXp+ymXqcemovFxmtay69WaKIntlYftlgmqDzlaTxWzMaNTlfDDjLBMs4wwhQZOSVQ1OMqB/8IHj97u8f3vKSd+Qlbepb22z9XiNnfUKtZKNI3PrFEIhnTJexcMKalR1AnJJNBYMJh49+XGRwLV3/GknFSAdlFsmaK5TH81Y7wyYR5dc9PY5ixOkFGQYpKiTlDVqesrl8S4ffn3N+70exyObxG+z0dlg49Ea7UZI1V/VnX1/rH9u6SiEpZDCYCkLxxZkxmXuKCyZV0GKTwb1q/u5ioqBkDbKLuOFbdo7T9FGEKdgH/Q5G54w+LDkrU4YD9tMtsDXA05++ZWTD11Ohxax06L9+BE7Lx/xZKdGp+ZSciTWTXstRhNpuRhShJSY2MaxVFHWc5dHIDBCIu0AL1yntpHweBZh1BHsjxjMTzjfEywWU9KoQ6uSIgbvGB4f8subAWcjhaht0Nh+xuNn2zzdadGqevi2/Kie7HvCJ6QXfwkAiQSUlOhVrPrmQvk2yFVEQoCRSOXhluqoTYXl+1iOwgsU2c8nHJ/vchxF9M5rjB8bfDXj7D9HXPZSTOUZtfWnPHn1jJevttlohdRLNo4USMxnyR2BLMKREiFWc/YfWPgKhbAC7LKiioVUCsf3EfyKPOhz3NtjNOyxmNYJgxQxeM90MOJgEBD7OzzaesbTn17x6vk6j9arlDyFZ30cHf6ecEX6tfXkJlKEcq/WmDfdH/GbD1TkkbNi1FC2j1CKslQIobAcHyFt3LcH7B7scvFuSfdYgO1gooBSaYetZy95+uMLnj5dZ6NdphrYOJYsRplPL3dzR6abjtMfeNRGgFRIXJygSih3QOaPxg32EO/OODrdZ+9fb1kkGZCh/Cpe6wXbj1/x43+94MXzdTbbIWFQdE6xiizevRn3hS/E3q/noWul5V1an/ftq1CpAIxCKh8rsKg4HrbnY9kZUowYnf7CwfE+b0aSmb3J5vb/5IedF2y+fMmLfzxhu1OmHjg54UVHuq2txuRXXK3D//hzXsUZcufQLVtI5eDYAsc2xNMeo5MLXr8+4KCvSRuPab14zv/e+pEX//wHP/2wxqO1kLIrc01bEVO/uZQ1H4Vdvx7ucp1r0j+LLf/Vyxc2V/yjhI1wXLTn4tkCSyQsoinj4ZDLvmLuhtRqmjSzsewAP/BxPbvI3t2w3c9jt3+iXTe+ugqF56ObUAohJJbj4rgutiUhjUiiIcNJn4sxGLWGPxdo4eV5bt8j8FdO5qpN1/FJIQRxHDOZTOj1epyenjIajUjTlL9jw06tNZ7n0W63r/6Uy2WklLeS/5WVMzfECzpGp3MWswnT0ZjJMGK2VMQEOK5AeDYWKSaKWEYR0XxBHFskTl6Jr4op56/byZcesgYj0GSQpcSLOfPJmMlozHS6YJ5o8F3sUCIcga1j9CJiMZsRRSGLpYNyFI765BLFQ0+ShMvLS3Z3d/nXv/7FwcEBcRyTZdlH+f0/Cq01aZpSq9X48ccf+eGHH3BdlyAIkPL2soY7kH4dGcfogsTfa6C5yu8aNFInxIsx0eCY7uEuH94es3+8YG6tU3lS40dboOwSTpbhLE4YHDY4rDq4ah2lalR8G08Vk0bRib401N/+/9Unnw/+V5oGIfLdmJKYZD5k2jvmZHeX/d1TjkeShbvB+ssWlQSUdvDLM7L+PqfvXBq+wZKw3gzyyJ0oHM6VYwxIKXEchzAMWVtbQ2tNkiRorb9Izl1gjCFNU8IwpNVqEYYhjuNcfe9vtXT9W98UeX5bGI3WMdlywuzylO7ea/bffeDNm3MOLwTUX7DzqMzamoUvloz2eswn54wPffaUwHEk0rKgWUaVcvGD+l2DMMWvT+d3XXz3S4dlGJ2SRCMmvUPO99/z4fU7dg8u6C7K0GjxqlMh8DXW9Jx4EtEfH3DxLuO9LcgQYDoIWaHkSFxLIYxBGI2REsuyqIQhW1tbOI7DkydPyLLs6vJ/lnhjDFmW4bou9Xqder1OqVT64tAOv0H66uelUlhKIZVAiZvZbIEQ+f6kUimUup5z87RoiskiltMh094B50d7fPjlHfv7A06GNlm5w+bjJ6zvtNheU3jZiF75LeeHPc4vu1zuad4piJYZ8fN10vUaVd/Cs/Is23W0ZZXxUghUripREqWulT+iUJ4oJVGWQt3oOYK8g+o4IokGDM+POHn7C3u7B7w/GHIx91G1TbbWN3j6pEmnrFHTfUanp7x716c3OuH8gyReLtFJzDLeZKtdplp2cay8kwpjkFLgeR51KXFdlyRJPkrL/lnStc47s1IKx3HwPA/btu/oyH2C1c5XOsvIsqzYkNbkEh6tMVqjdYZOMzKdkWlTdIrCokxKFk+Jxmd099+w9+Y9v/yny9mlQNee0th5zov/8ZJnT9ts1AXWckDLg7InSX4+5rR3xMkbxXQBUtko20O2AqySRBqJFKv1hMYg86lH3GhrpsmKLGBq8rZe34cGeWM9r1OyeMKsf0z/8C3vf3nNh/0+x4sQXV5j69Ernr98zA9PGnQqGjWrM2hUEMnPiPc9ji72OJktQdlobGxb4rg2UiiUlV9DCJk7ho5DqVT6Wxy4T7HyDX7PP7gm/Uq5siqmi1kuE6LxiPnohNOTc856Yy6Gc8Zjj6kZcnnRpXt+xlmYEpgqlbKH50hsW+R55sWI2aDL6eEph4dD+nOXLGjRefKMJz++4NnTTXY2qlQDgYxtHBMjjCGeL9Gmx0G3Rz9xOK438asVSoFNEFgoDNKstHsZWRITxzPiZMzo4ozz0y7nvUv6izmXqSSeXXI56NI9a3DesJCVMqnv4jkOljJIHZMsJsx7R/SODzg6HdOdOojGFu2dlzx98ZjnT9ZZb5ep+wZZsrCkJI4iEJLkdZ/e7ILL01OO/ZBGM6RSLeEqgWMpBKaIEN5fmOa3OtUnETkDOsPoBfFiyqQ/YnBxzuDikNODM056c/ozw3yxZGmNGPVP6R43OXRTLJ2x1qrTqPiUpUSajHQZEc1nDC+XjKc2orRGrfOUZz+94tVPj9jphDRCB1sajKgQtnYAiUkiAEbDKf3RiGl/zGi8ZJ5kpOROV26hGp0uWM5GTCcDhuMevdNDTg+6nPQmDLVm7gDLEcP+GWeHIbVAwlqHrFGlEVqUXINlEnQcEU2GzMZzpolP4tdpP3rFkx9f8uJph531ClXXwrYE0rEJhWLLpEjLJl78gnUSMYgnTIdjZrMF0VKTBCvRtci9jO/kfQq3FEZmoJekiwnj/jkXx0ecd085ORtzmbgkfpMAD8dTqGTEbHDKWaBwLAtleziui+dJHBTS9nBKDaqdx6yzpB6sU1rb5unTNdabZSqBgyOLSL5ykF5Iqdah9egZceoymg2ojR1KaxXqgYVvFcX6hVZDGI1JlyTRJdPLc87Ozjg9OeO8G3EZ28hWk4qncEKQ2ZBJ75Ru2caSNsp2cDw3V+IIhbI9vHKTylrCZmZREU02Xjxm+1Gb9UaZ0MuVMBJAONhuhbC+QbKleTbXuNUJ3biOqoSERchYmFWQ6o+LF78mPiddGDAZOlsSzyfMx1OmkyVRaiErm9TsJk6q0JZPUJI4ek4czRnPFsyXKXGqSbXBsWyUV6PUhI0XZUobGsp1SvUGrWZIrZSnSVfipVweZ6PcKpX2Y5BVMjFkOAGn1SZsB1Q9hSNWog2TO5W60PMtZswmUyaTmLkOkKUN1l7WqCYS5VcIKgIrWxJPZ0TzJdEiI001GRZGWCg3JGg/Zs1qYto+qarQWm/SbIRUAisPvBiNJs9KGGmj/CZhx2Ibl7AzpxW5aCek2ShRcmWeBv4Og+/Xatjib2MURjpYdki53qGdWlhhk+rGgihOiTONNoBQWLaL7ZVxynXCWo1W1SPwJJYUKGGBU6YUWnQ2K1RTkL6PE/gEvoNbaN3EVf5EgJQo20WoOqHw2KRKfaFRfgm37FNyLexiDWxEMcxbNnZQo1TXtDMfFXRorkVEy5gkzdBGgrKxLBfXL1EKa1TbVWoVB98WWLLICLohQV0j3CZ208VIj3KYR9pcW9yoIBEYYfL9YCwPNxDIjsKpxJRiSSZdvMDHdyV2UWe0coq/F1wVO5grJWqGyVKyJGYxmxNFCxZJRprlSpBC25QfTJ6owPKwHY8gcAlcB8eWWGKleTNkaV4RI5VEqHypl+9+dSO8ekMCLdBkmSFNMrIMhJK5Vl3JYvmVP0yhM3SWkMQLlssl0SJmGaekSYbWID7KEsm8UsRycHwPx/PwHAfHkXnhn9GYLENrQ6oliEIssqqIWd3xzTyyEblWL8vDqZnJFT1Syqt1siwSQt9L5Q/cSnohg9aaLEvRxVItF+XnprmKtRlNEVuXIC1sld9svmaX15ZRdJaVA6vNar3/hUZRdKuPlLJFDsisMoBFezONNtlVO7XWReWIuUHWDY27lPmaXeYd6WNSV1NNQbGgSOR8IVsmRDFSrU4uPk5M3dDur0j/29/GtHpGf6BM6xPSb2TT/oKjeZ+9+m9Z766I+YqT7+2kF1+v9PM3G7QaIQr9wKoW4MYJr+rybp7/LndwI8tW/GOuuuafqrpYaRzuNYV4p4KCW09y/aC/OvHXjOUEr/T2CfEyYrlIiBYJqZFIN8B2XTxPYJNHC+NFTBQlJFoglI/jewRlD8+zUfKPlWn9Ruz9fqsu/hL+xF5q3w4GhMFkRd1dNGE6vGR0OabfnxNpCxk2CSoVmlULT6akswHz8ZT+YMEytZBeg3K9wdp2g7pt4QlTaBfvhhvKmauu/v8FvifH6O5YTZ0F4dM+o36X7skRJycXHB8PGS0UVLYIG0021xxCJyEenzHuDzk/XRAlAW59h84jg10J8EIfx1q9g+1ueNiJ4l4hgCxf76cRy8llXit4esDh/hG7787oXhqW/jmlRof+o5B6WcOiy3gw5PwoYpFUCdoemdNg40XK2g0n8q54IP3eYTBkGK3zl+tleVjXshVWOiO7HHJxNOQ86LKYb7OxUaERulh+lXLNwkl87LKH41rYSqD+hD7sgfR7Rz4QGyFBuigvpNxoUZ+MGPqSXjJlcTZgYi1QpTpevc3aZo121aJZn5JmDiZoU1+rUPFtbClufcvib+GB9G8BI1GWjx82MBKckkbP+wxKNi4glhaKEuXKGp2NZzx60WGr5SKXEWSS1KrhhzUaoYcnZfGajxx/bMn2gHtAPvfmhSASv2pj+5LSYkE68Nlz8y1GHKeMqO6wuf2C569e8fxlm52Oj5UmCF1sp6IcPC8f4iV/bFZ/IP3ekYdqhQRbSYRWyCyGZcR8sWQiFFlnjWDzCetPttnc7NCuV6iWbaTRiKzYsGG1b464GXm8Gx5Iv1fciJ4JEGSILEXPJsSTIZfTiLGwYGOd8svHdJ50WOuEVAIbV8gi2fNbZ74bHkj/FhBFytUYdJpvCTofTphPExJt49ZrVDda1JohYTUv9lgdeDPh82eDZw+k3xtWVn4lukablDSOmE/GTIcTFhONyfJy53q7Qrnm4rqS2/f8//PJmodN/u8bV/msYivvZM5sOGE0mDGfSEjLhGGFVr1MWLLx3Bsazr8JD6TfO1Z1VBpjFqTJnNlkzGS4YDF3kaZCLQhpVX3CQOHKvz8y/kD6t0Dx6k2TRaTLGePJjOEsY0YZ7TcIyxUaZZ/QVrj8/SQ9zOnfAkUFkMlisixmmRiWwsZUqji1FtVahbrvUbIkDn+/pT+Q/k2QizuFkUjp4lQaVNYN66qJrG+zvlalXrLxLPmHsmd3xQPp3wKGQsDnYHtVKp1HrCcNsvU6qrLJ5mZItVzIqL/C5R9Iv3estHQKqUp44RrtRxZOLaadBUgvpNOpUA0U9p3fyPfHcPf93h/w9+CjffPzbVTjOCNNMzIkQlrYroNjWygpUF9hK/UH0u8bVy/TKwqqdfHRDW7zIkT51aTTD8P7t8Bqu2+Ab7BH/gPp3xy3b4H+NYff/wdnz7OHlczcPQAAAABJRU5ErkJggg==;" vertex="1" parent="1">
          <mxGeometry x="357.05" y="272" width="45.89" height="29" as="geometry" />
        </mxCell>
        <mxCell id="JMNptI0SkTSTvYcWqJ-m-19" value="" style="shape=image;verticalLabelPosition=bottom;labelBackgroundColor=default;verticalAlign=top;aspect=fixed;imageAspect=0;image=data:image/png,iVBORw0KGgoAAAANSUhEUgAAAH0AAABPCAYAAADGMsqDAAAex0lEQVR4nO2deXPbuNbmfwC4S9Quec+edPd971TNzPf/BlNTt+qtvrc7q/dNlmTtlLgA8wcp20mcbvcSJ1PlJ6tlkwT54AAH5zwHFMYYwwO+G3xMh0CIv/8a1t9/ygf8fTDkfUCsft/yvRziD/SOB9K/GxhWlm0Q+dc6Q2eaNE3IMk2myYkWAiElUllYlsJSAmEMxmgEAoTACIHIzwj5IVd4IP07Q269KTpLSOOYeLkkiuYsFjFJasgMGBTKdnGCANdxCGyJJcFkBqRAOA7SslCA/GyEeCD9m8MYk1suAkyGyRLSZMpiOmZ0OWZ4ecll/5LRZM5smRJnYJSLU6oQNlpUymXqjiRQCqRCeT5uvYJXEviWwuaB9O8TxmB0SpYuiKMxs9EFl/0uZyc9uud9LroDhuMps2XC0kiMHeCWK1TaazTKIQ0kZdvF8kP8Zp2a41L1PSwNtkU+c9zAA+nfCPncDGDApCTLMdHwlN7ZMUfvP3B01OfsMmGSgFA2tt+iVrOwHIWUgNDoxQmjXsJ5V2OJCpWd53RelnE3NDVjEMIU/sHHeCD9W8IYdJZgkinz4Snd/f+w++Y1//6/H9g/mTGUDez6BlvPtmltr7HZDqmVFbaIWAzP6O3/wuHRCSe/RsyzDmvWOta6YCcTKJHP5/KWyz6Qfs9YzeGYDGMS0mjIvH/Iyf4bfv3vn3n75ojdg5iprlLefsz6s6c8f/WYR1tt1hoBoS+wWLAYOpSTLvpyyGklJo4lIvDA93GUhSskSogH0r8XCGPQOsWkUxbDU7q7P/Ph3//mX//nLR+OYubWI6pbL3j2z3/y6r+e8OxRm/V2SNm1cBVIoUl8i0rcRSxiumMPO6pR3qpTbpTxXAdHCOzielczSYEH0u8NxaMXBmMMOp2TTC4Ynu9x8OY1b/+zx4eDhF5cZ+3VC5781z959dMzXj1bo9MMqPgOtlwN1wrHLUOlQ70TsfXUxV6GOJs16nUf37VQQoApgjqfTOsPpN83TO64ZfGM+eCEwdEuH37d5f37Ad1ZC9l6xvZP/+Af/+sHfnjVYrtTxrMEljRIisCNAS1sZNCk1MrYTCv4qY9q1ajUXTxHIgUgPrXxHA+k3xdWz99ojI6IoyHD82PO9o452Btw1tPoSpvm46dsPdvm0eMWrXpAyZGoT85jMBhlI/wGftNmzW4RGhtRquCXLHxHIEQepbuF8wfS7w+rp59i0jnL2YDB+QmnR2ecni2YLEPK6zts/fCE7Sct1toBgasKwm8uvQwYgxAK3AquCmj6mhqA7aEshaMEUtxOODyQ/tVhbkRGBKCzhGw5YTkdcNnrcjEYMZhbLFWNjfYam5ttOs0SlZLCtcTVkTcozz8REmM5KOXgOmb1IUiBNIIvMs4D6fcGIwpisoxsMWM5ueRyOGAwmTHFR5RbNJtNNttVGmWHkiVQxZzw6cwsxOqz3FFTn17sdxJuD6TfC/KsmTGQpSlpNCUaD5mMhoyjJUunhqrVCBsVGtUSZdfCAeQqQ3bbGVcuubgeBVa51t8TSDyQfo8QaDAp6TJiGc2JZnMWSUzqu9iVEn7oE3g2rhSfW++XYMzvkvwpHki/ZxhjMGmGThOyLCE1GZmSCMfBdmw828JRt8XRcvwRscSX8OWzP+CrQCCQUiKVQiqFkhJpNEan6CwlzTSZ/g3bNeYz6zbF13e1+AdLv0cIJEJZWEGAX64QVsoE9hQ1mJL0evQvhnSHMzbXHCpYt5BjMFlMGs1YREtm85REWFjVCp7vEdgK53qq/yIeSL8vFEEVaVk45SqleotGc412ZUr5cMa0f8rp8TG7x2u0OzZ+SVFRAlcVxxoNJiGJZkT9C0bDCd1+wtIqUdqxqLVdlDTYtkD+jsk/kH4vMIhC/yaUg/Bq+LV11jYfsX0+Z/vslKNJn8vDN7wp2wR2xHK+zkbFperZWNIgdIxOIhbTEcOLAePJkvHSR5YDfEAh8tDrHfBA+j3CIBDCQtpVvOo67UfPeTJe0h1EpAcTesNDTt6Aq5JcLrVRpVNx8RVYJiZdTphPpwwvZ8wThQnKhK6PZ9v4Fqhb9HC34YH0r4zPYmlSIfCw/Sb19WdsLuCnpcAOT9m/WDJO+0y779jPBsx6ISdlj5Jt4VoKSxlAkhkPuxRSbjSptapUfRvfEqwCeLenWa7xQPp9wqys3cb2QoLmDh3hYCyPUr1J/eCUk96EQTxhPog4m7lcui6BGxAEJYJSSLlaJaw2qDeatNoN6rWQWsnBl/nw/oUcy0f4S6QbuL7KVfj3K5Rk/GXcXOZ87N7eW2uvDL7IgEkHy6tQqgvWpI0X1qg011kbjOnPE+aJyaXOloVtu7heCT+sUA6rVKtVatUKtWqZku/g2QopRB6wvcMNiTuXNa3Wh0bnIgCK3K4Q+QVX4vrvhHRjAKPRWmNW614pEbJo632TXnS5q6dtDNpodJaik5gkjlhEM6JozmyeECVZXtyAQIhC5+4HeJ5PEHj4roNnW9i2/Lig4Q739RnpV8t+I1YRY0Cjs5gkWpAsFyzijMQopOvjuD6eY+HYed5X3NWF/Iv4qNmrkUZQaMfjvJ2zBctlRoaDdBzcko/n21hCIIXkxjO6P1zFxw3GCEAXA1GKTlLSLCFJU5JUo7VBm9ywhFJYlpNbvlLYVq6KlaLw3sznlSxfwheHd1M0RmcpaRqxnE+YDnpMhhNGM81S+gTNNSoNRTPMS2ukuk/LKdppzNU61ugUnSxYLi6ZDof0TwdMZ4bMaeJWG7Q3FcK1kKrooPfc1o9RlDBdSZpslGuj8HE/HRVWR9zCqDHmhrN4N1yRbswNn08YjMnQyYJ4PmJ8eUG/e8LJ7j6n5yN6UxsddNj8QfFIlnBdh8ArHuPNEKH4UnOui++ubuSGBVDouz6+R3N1g3nIcWXeeaFAmkQsZyMml136Z3ucH5+w927AeG5jt36g9eQ5puzjVHwcBbYo2nCdoP7ttn76wM01MUJ8WmCYH3PTi76ZFbt5fP75n6lO/bSA8e5HfmLpqzk7I0sWxNMB4/4p54e7HH54x68//8Le0YizRR279YJ/BBt4rU3aDZ0PQ+aaDl3c2JcdhltutDjemOKh6Y9+PA9uXC1L8utkOkUnM6LJgFH3mPOjXfbe/cyHN/u8/neP0aJG7YXHE9mi/qRDUxtCky99EOaaPP0bbf1Ch8jbaT4rL75u8JeP/eRMn1n118RHpAuj0dkSnUyJxj0uTk44PdrncG+X/Q+7vH39juPunAEJJdVhax6zTDWZ/th5MBiMztBpSpamLBYpmQbhuFiOjWMrbFX08BsdQ6y6i0nIFgmzyYI41hjLRbkuXpAfqyRINCZLSKIxs8tzLs+POT4+4GDvA7vv3rL77pgP78YsTUxWn9CaxcSJztt27fqgyTu5SVLSeEGcZCSZhZEOrm/jOBZKFZkpY66Ou+p8OiFdRqRxTBQLNBaW5+E4NrYl82NvIf5bOrw3SC+sNIvR8z7R4Iizo3123x9yeHjK8WmfXn/IZLJk7i6w0owUgy5kvQKKYXk17GVkyYxoOmPQmzFfkgv3KmWqFZ8wcLBu3nixOtA6QccT5uMJ5wdDxlMNYR2/UaMlS1QsiRQyn37SiHQ+ZHJxTPdoj8PDY/aPzzi5GHIxnDEZzclETBynuUWKLwQudJq3ddRnOlkwjDy0FVBrVghrAb5j4dgfpySNyZMfyWJKNOoxHc25nElSWSJs1inXyoRKoIS8f2fxd/Dx8G4MJkvIoinxbMp0LpibMm5zk7aQMO/hiAE6FSihCys1iE9GNwGgE7JlboVn78/oDpYkQZugvc72ozXW16tUPQvPLvQhRhcVH2Nmw2O6x2f8+t89ekOBs/OM5hMb23fxSy4WBmV0nnGKlyymS5YxSL9KpZOxLRMcbUj3IsazBJXpK+nwrSoUk6LjMdHggO5Jn90zi4gaa88esb7TZq1RolpysFQubhACdLYkXYyY9c853/tAtzvmbFqGoMUGDpu+j+8qrioOviPcMqcbTJaBsRBeHa9doeJqzKxB25xRUUuWlzYzSxa1z5+uC1dDdEaWzllM+/SPP3B0MGZs9XDW5sRGgFLIZglZtrElmCxBL8fMh116R7scvD3g9b8HnE8C6rKOabZZTzQpFM6cKDoKIB3soEY97BCsryOmHj1HsPzvHkczjSeK4VTCpxICUSxJTRIRT7qMzw44+DVlkNQYxoa5yR1GqULKjkJaAkxKspgwG5xwcbjH7uvXHJ5OOU86uC0bd21Jo6gl/22J4rfBx6QLgZAuVtCi1HLZciXlKMWWM5b9CHXgM3AlliVuFLvf5oEIEBJlubieS6kk8e05vcEhk+kcZTRpnJE9XydbD6m6oNIJs8ExF4d7fHizy+5un95ckQUhpVqZWtUn8CxsuQpCSITl4wR1qusCq9amYQuSeMjyrI8uufiWwlo9+Bsd9NO2CmEhLQ/HL+P5Di6X6MmE7q4kzWJk9hSjDRutAOMbZDzKU6Hv33DwYZ93q7bWAsIwpFx2CRyFJWW+nLxjIuS+cIN0gTEK4fhYlQ3Ccgd3TRHHEXp+ymXqcemovFxmtay69WaKIntlYftlgmqDzlaTxWzMaNTlfDDjLBMs4wwhQZOSVQ1OMqB/8IHj97u8f3vKSd+Qlbepb22z9XiNnfUKtZKNI3PrFEIhnTJexcMKalR1AnJJNBYMJh49+XGRwLV3/GknFSAdlFsmaK5TH81Y7wyYR5dc9PY5ixOkFGQYpKiTlDVqesrl8S4ffn3N+70exyObxG+z0dlg49Ea7UZI1V/VnX1/rH9u6SiEpZDCYCkLxxZkxmXuKCyZV0GKTwb1q/u5ioqBkDbKLuOFbdo7T9FGEKdgH/Q5G54w+LDkrU4YD9tMtsDXA05++ZWTD11Ohxax06L9+BE7Lx/xZKdGp+ZSciTWTXstRhNpuRhShJSY2MaxVFHWc5dHIDBCIu0AL1yntpHweBZh1BHsjxjMTzjfEywWU9KoQ6uSIgbvGB4f8subAWcjhaht0Nh+xuNn2zzdadGqevi2/Kie7HvCJ6QXfwkAiQSUlOhVrPrmQvk2yFVEQoCRSOXhluqoTYXl+1iOwgsU2c8nHJ/vchxF9M5rjB8bfDXj7D9HXPZSTOUZtfWnPHn1jJevttlohdRLNo4USMxnyR2BLMKREiFWc/YfWPgKhbAC7LKiioVUCsf3EfyKPOhz3NtjNOyxmNYJgxQxeM90MOJgEBD7OzzaesbTn17x6vk6j9arlDyFZ30cHf6ecEX6tfXkJlKEcq/WmDfdH/GbD1TkkbNi1FC2j1CKslQIobAcHyFt3LcH7B7scvFuSfdYgO1gooBSaYetZy95+uMLnj5dZ6NdphrYOJYsRplPL3dzR6abjtMfeNRGgFRIXJygSih3QOaPxg32EO/OODrdZ+9fb1kkGZCh/Cpe6wXbj1/x43+94MXzdTbbIWFQdE6xiizevRn3hS/E3q/noWul5V1an/ftq1CpAIxCKh8rsKg4HrbnY9kZUowYnf7CwfE+b0aSmb3J5vb/5IedF2y+fMmLfzxhu1OmHjg54UVHuq2txuRXXK3D//hzXsUZcufQLVtI5eDYAsc2xNMeo5MLXr8+4KCvSRuPab14zv/e+pEX//wHP/2wxqO1kLIrc01bEVO/uZQ1H4Vdvx7ucp1r0j+LLf/Vyxc2V/yjhI1wXLTn4tkCSyQsoinj4ZDLvmLuhtRqmjSzsewAP/BxPbvI3t2w3c9jt3+iXTe+ugqF56ObUAohJJbj4rgutiUhjUiiIcNJn4sxGLWGPxdo4eV5bt8j8FdO5qpN1/FJIQRxHDOZTOj1epyenjIajUjTlL9jw06tNZ7n0W63r/6Uy2WklLeS/5WVMzfECzpGp3MWswnT0ZjJMGK2VMQEOK5AeDYWKSaKWEYR0XxBHFskTl6Jr4op56/byZcesgYj0GSQpcSLOfPJmMlozHS6YJ5o8F3sUCIcga1j9CJiMZsRRSGLpYNyFI765BLFQ0+ShMvLS3Z3d/nXv/7FwcEBcRyTZdlH+f0/Cq01aZpSq9X48ccf+eGHH3BdlyAIkPL2soY7kH4dGcfogsTfa6C5yu8aNFInxIsx0eCY7uEuH94es3+8YG6tU3lS40dboOwSTpbhLE4YHDY4rDq4ah2lalR8G08Vk0bRib401N/+/9Unnw/+V5oGIfLdmJKYZD5k2jvmZHeX/d1TjkeShbvB+ssWlQSUdvDLM7L+PqfvXBq+wZKw3gzyyJ0oHM6VYwxIKXEchzAMWVtbQ2tNkiRorb9Izl1gjCFNU8IwpNVqEYYhjuNcfe9vtXT9W98UeX5bGI3WMdlywuzylO7ea/bffeDNm3MOLwTUX7DzqMzamoUvloz2eswn54wPffaUwHEk0rKgWUaVcvGD+l2DMMWvT+d3XXz3S4dlGJ2SRCMmvUPO99/z4fU7dg8u6C7K0GjxqlMh8DXW9Jx4EtEfH3DxLuO9LcgQYDoIWaHkSFxLIYxBGI2REsuyqIQhW1tbOI7DkydPyLLs6vJ/lnhjDFmW4bou9Xqder1OqVT64tAOv0H66uelUlhKIZVAiZvZbIEQ+f6kUimUup5z87RoiskiltMh094B50d7fPjlHfv7A06GNlm5w+bjJ6zvtNheU3jZiF75LeeHPc4vu1zuad4piJYZ8fN10vUaVd/Cs/Is23W0ZZXxUghUripREqWulT+iUJ4oJVGWQt3oOYK8g+o4IokGDM+POHn7C3u7B7w/GHIx91G1TbbWN3j6pEmnrFHTfUanp7x716c3OuH8gyReLtFJzDLeZKtdplp2cay8kwpjkFLgeR51KXFdlyRJPkrL/lnStc47s1IKx3HwPA/btu/oyH2C1c5XOsvIsqzYkNbkEh6tMVqjdYZOMzKdkWlTdIrCokxKFk+Jxmd099+w9+Y9v/yny9mlQNee0th5zov/8ZJnT9ts1AXWckDLg7InSX4+5rR3xMkbxXQBUtko20O2AqySRBqJFKv1hMYg86lH3GhrpsmKLGBq8rZe34cGeWM9r1OyeMKsf0z/8C3vf3nNh/0+x4sQXV5j69Ernr98zA9PGnQqGjWrM2hUEMnPiPc9ji72OJktQdlobGxb4rg2UiiUlV9DCJk7ho5DqVT6Wxy4T7HyDX7PP7gm/Uq5siqmi1kuE6LxiPnohNOTc856Yy6Gc8Zjj6kZcnnRpXt+xlmYEpgqlbKH50hsW+R55sWI2aDL6eEph4dD+nOXLGjRefKMJz++4NnTTXY2qlQDgYxtHBMjjCGeL9Gmx0G3Rz9xOK438asVSoFNEFgoDNKstHsZWRITxzPiZMzo4ozz0y7nvUv6izmXqSSeXXI56NI9a3DesJCVMqnv4jkOljJIHZMsJsx7R/SODzg6HdOdOojGFu2dlzx98ZjnT9ZZb5ep+wZZsrCkJI4iEJLkdZ/e7ILL01OO/ZBGM6RSLeEqgWMpBKaIEN5fmOa3OtUnETkDOsPoBfFiyqQ/YnBxzuDikNODM056c/ozw3yxZGmNGPVP6R43OXRTLJ2x1qrTqPiUpUSajHQZEc1nDC+XjKc2orRGrfOUZz+94tVPj9jphDRCB1sajKgQtnYAiUkiAEbDKf3RiGl/zGi8ZJ5kpOROV26hGp0uWM5GTCcDhuMevdNDTg+6nPQmDLVm7gDLEcP+GWeHIbVAwlqHrFGlEVqUXINlEnQcEU2GzMZzpolP4tdpP3rFkx9f8uJph531ClXXwrYE0rEJhWLLpEjLJl78gnUSMYgnTIdjZrMF0VKTBCvRtci9jO/kfQq3FEZmoJekiwnj/jkXx0ecd085ORtzmbgkfpMAD8dTqGTEbHDKWaBwLAtleziui+dJHBTS9nBKDaqdx6yzpB6sU1rb5unTNdabZSqBgyOLSL5ykF5Iqdah9egZceoymg2ojR1KaxXqgYVvFcX6hVZDGI1JlyTRJdPLc87Ozjg9OeO8G3EZ28hWk4qncEKQ2ZBJ75Ru2caSNsp2cDw3V+IIhbI9vHKTylrCZmZREU02Xjxm+1Gb9UaZ0MuVMBJAONhuhbC+QbKleTbXuNUJ3biOqoSERchYmFWQ6o+LF78mPiddGDAZOlsSzyfMx1OmkyVRaiErm9TsJk6q0JZPUJI4ek4czRnPFsyXKXGqSbXBsWyUV6PUhI0XZUobGsp1SvUGrWZIrZSnSVfipVweZ6PcKpX2Y5BVMjFkOAGn1SZsB1Q9hSNWog2TO5W60PMtZswmUyaTmLkOkKUN1l7WqCYS5VcIKgIrWxJPZ0TzJdEiI001GRZGWCg3JGg/Zs1qYto+qarQWm/SbIRUAisPvBiNJs9KGGmj/CZhx2Ibl7AzpxW5aCek2ShRcmWeBv4Og+/Xatjib2MURjpYdki53qGdWlhhk+rGgihOiTONNoBQWLaL7ZVxynXCWo1W1SPwJJYUKGGBU6YUWnQ2K1RTkL6PE/gEvoNbaN3EVf5EgJQo20WoOqHw2KRKfaFRfgm37FNyLexiDWxEMcxbNnZQo1TXtDMfFXRorkVEy5gkzdBGgrKxLBfXL1EKa1TbVWoVB98WWLLICLohQV0j3CZ208VIj3KYR9pcW9yoIBEYYfL9YCwPNxDIjsKpxJRiSSZdvMDHdyV2UWe0coq/F1wVO5grJWqGyVKyJGYxmxNFCxZJRprlSpBC25QfTJ6owPKwHY8gcAlcB8eWWGKleTNkaV4RI5VEqHypl+9+dSO8ekMCLdBkmSFNMrIMhJK5Vl3JYvmVP0yhM3SWkMQLlssl0SJmGaekSYbWID7KEsm8UsRycHwPx/PwHAfHkXnhn9GYLENrQ6oliEIssqqIWd3xzTyyEblWL8vDqZnJFT1Syqt1siwSQt9L5Q/cSnohg9aaLEvRxVItF+XnprmKtRlNEVuXIC1sld9svmaX15ZRdJaVA6vNar3/hUZRdKuPlLJFDsisMoBFezONNtlVO7XWReWIuUHWDY27lPmaXeYd6WNSV1NNQbGgSOR8IVsmRDFSrU4uPk5M3dDur0j/29/GtHpGf6BM6xPSb2TT/oKjeZ+9+m9Z766I+YqT7+2kF1+v9PM3G7QaIQr9wKoW4MYJr+rybp7/LndwI8tW/GOuuuafqrpYaRzuNYV4p4KCW09y/aC/OvHXjOUEr/T2CfEyYrlIiBYJqZFIN8B2XTxPYJNHC+NFTBQlJFoglI/jewRlD8+zUfKPlWn9Ruz9fqsu/hL+xF5q3w4GhMFkRd1dNGE6vGR0OabfnxNpCxk2CSoVmlULT6akswHz8ZT+YMEytZBeg3K9wdp2g7pt4QlTaBfvhhvKmauu/v8FvifH6O5YTZ0F4dM+o36X7skRJycXHB8PGS0UVLYIG0021xxCJyEenzHuDzk/XRAlAW59h84jg10J8EIfx1q9g+1ueNiJ4l4hgCxf76cRy8llXit4esDh/hG7787oXhqW/jmlRof+o5B6WcOiy3gw5PwoYpFUCdoemdNg40XK2g0n8q54IP3eYTBkGK3zl+tleVjXshVWOiO7HHJxNOQ86LKYb7OxUaERulh+lXLNwkl87LKH41rYSqD+hD7sgfR7Rz4QGyFBuigvpNxoUZ+MGPqSXjJlcTZgYi1QpTpevc3aZo121aJZn5JmDiZoU1+rUPFtbClufcvib+GB9G8BI1GWjx82MBKckkbP+wxKNi4glhaKEuXKGp2NZzx60WGr5SKXEWSS1KrhhzUaoYcnZfGajxx/bMn2gHtAPvfmhSASv2pj+5LSYkE68Nlz8y1GHKeMqO6wuf2C569e8fxlm52Oj5UmCF1sp6IcPC8f4iV/bFZ/IP3ekYdqhQRbSYRWyCyGZcR8sWQiFFlnjWDzCetPttnc7NCuV6iWbaTRiKzYsGG1b464GXm8Gx5Iv1fciJ4JEGSILEXPJsSTIZfTiLGwYGOd8svHdJ50WOuEVAIbV8gi2fNbZ74bHkj/FhBFytUYdJpvCTofTphPExJt49ZrVDda1JohYTUv9lgdeDPh82eDZw+k3xtWVn4lukablDSOmE/GTIcTFhONyfJy53q7Qrnm4rqS2/f8//PJmodN/u8bV/msYivvZM5sOGE0mDGfSEjLhGGFVr1MWLLx3Bsazr8JD6TfO1Z1VBpjFqTJnNlkzGS4YDF3kaZCLQhpVX3CQOHKvz8y/kD6t0Dx6k2TRaTLGePJjOEsY0YZ7TcIyxUaZZ/QVrj8/SQ9zOnfAkUFkMlisixmmRiWwsZUqji1FtVahbrvUbIkDn+/pT+Q/k2QizuFkUjp4lQaVNYN66qJrG+zvlalXrLxLPmHsmd3xQPp3wKGQsDnYHtVKp1HrCcNsvU6qrLJ5mZItVzIqL/C5R9Iv3estHQKqUp44RrtRxZOLaadBUgvpNOpUA0U9p3fyPfHcPf93h/w9+CjffPzbVTjOCNNMzIkQlrYroNjWygpUF9hK/UH0u8bVy/TKwqqdfHRDW7zIkT51aTTD8P7t8Bqu2+Ab7BH/gPp3xy3b4H+NYff/wdnz7OHlczcPQAAAABJRU5ErkJggg==;" vertex="1" parent="1">
          <mxGeometry x="424.11" y="272" width="45.89" height="29" as="geometry" />
        </mxCell>
        <mxCell id="JMNptI0SkTSTvYcWqJ-m-20" value="" style="endArrow=classic;html=1;rounded=0;fontFamily=Times New Roman;" edge="1" parent="1">
          <mxGeometry width="50" height="50" relative="1" as="geometry">
            <mxPoint x="80" y="350" as="sourcePoint" />
            <mxPoint x="140" y="350" as="targetPoint" />
          </mxGeometry>
        </mxCell>
        <mxCell id="JMNptI0SkTSTvYcWqJ-m-21" value="" style="shape=image;verticalLabelPosition=bottom;labelBackgroundColor=default;verticalAlign=top;aspect=fixed;imageAspect=0;image=data:image/png,iVBORw0KGgoAAAANSUhEUgAAADMAAAA6CAYAAAAdrmHiAAANi0lEQVRoge2a2XIbR5ZATy61ooDCzlWi5KXHfpj//5GO6bYtWaIoriC2Agq1Z84DQFKyJYu27B6PwxkBIlBAVebJe/OuFNZay19kyP/rBfye42+YP+v4G+bPOv5SMPo337mz6Pd2XQiEtdxdtdbyYPQFQgiEsIB455p991EfeM7uWYj7ux5+9tMrnwPzsM7dRAZrwZgGYypMbagaCxaEUAilUI5CCYGQEikeFvmwLgvGYq3ZboYAawVCbDdNyp8D/C4wFsDeTWwwdUVV5OSbDZt8Q5YV5OV2wUgH7Xi4vo/ruriug+u6eK5CK4WUW323tsHUFXVZUTWGykqkcnA8F0cpHGGRQvAxL/95khEWTI2pCrLVlNX0hsn1DZc3U6bLlHVuqYxEOB6uF9GKOkTdLnHco9vtEMch7cDFdxRKWmxTUKYJ6WrFOmtIawe/HdPtd4kCgVZyqwYfofnNMAIwtqEpN+SrGfOrcy7OXvP27JI31zOmSUZaGuoGrHBx3AAvaBN1unQHQ/rDHsNBl247IPI0jjbQ5GTJktV8ybpUFLpLb6xxWhG+774z84dpPkPNGqwpKNZTkqtXnH3/gu/+/SOnV0su04JNbRDCYuoGU1VUpaExAuGGeK2YTrdLrx8TxxFx5OOrBtVkbJKM9arE+gOCoUAEXcZmp66fGL9dMsIgTE1dpmxWC5aLFbNlyabRqKBF25H4GmxT0OQZeZqyTjPyMmFdpeTrKYupTxAEBH6Ary2OqGlqSd34RMMevnRQjovWEv0IJ/IZZ0YgRQNAYzQyGNI+aBM4Pn6/RxBqQm0RpqTJN2TrhPVqzmK+YDZfkiRrknTJerNkaR2U1vheSNgZEvcPGR2fcPLskOP9Ht3QxXe2FvCjB+YxMO9nCFtjam2DbUrqqqKsBY1u4XU0Q+XgtNv09nu0Qk0gDcI01FVBma/J0iXJbMrsdsJkMmEyWTBf5axyAdLHi2Li/h7joyccHO6xN+rQabloIcAYjBCIOxuwW9a77kZ8Kp+5/9paMA3G1DR1SVnmFHlOmq5ZrzdkpaBqHBzfJWz7uFoiMVizfW23wtJUOdUmYb2YMp/OmS42LNOKRnpov0MU9+gPBvTiiG4c0gpCvCAg8B08R6O1QgnuTfS7MI9UM4vFgK1oypQsXbCcLbidrUg2OVlRUxkJ0sHREj3devw7hym1h9uKaXW6tNtdur0+vTim27ok9KfI2xVpIbCywVRrspXBFAvSpYsTdPDbA7pxh0EvIhIgFAjszls/0DwCRuz+NmBL6s2E9fVrTl+85l/fnXMxWTLblOS1wQiFQKCkBSRIhXZDgqhP7+AL9k7+wRdPBzwfOniiQddz0tkbTl9ccDNbsykMtZVI7aK0ixe0CEfP6B//gy+eP+Ub5aOkwvGBD0QDv8IACLAGaGiqnCJdkNyec/Xmgjc3c+ZpzqbchjACgUWjdUgU7zE4POFYDvCGJXktMEKjtMZxFUrWmCJhPTlncr1gVUpqJ8KJYtr9EQM9RPcLsspQGTAI7J1UfnJAHq1mIEC5aK9Dq7/P8HDJk+mMZHnD5HLJxXTK1aIgLWqMVAhahP6IfXXA2BnQ64443IsZ9UJCX+PbLqJ/yPhwzfP5knJyzTpdsMp96u6YdueAo+fPOH72nCcne5zsRXRDiassUmyDj58e9kfAbG8RQmKFg/I7BN2G4VFJmReUeUqazFivE2bzJYu8oYSdBCPiwmCkhxsEdNo+UejhORJHtRBmQHe0z9HhjOTsinlnBlGX5uhr9r/4kv/65hlPTo443B8x7LXoBBJPv2PNfqJpj5TMLriTDtKJ8NouA+Xj+W2CMCAKNWHgQm2Qb6acrw01BisqGlOSVxVVbcBKpBQoV6O1j7Ix7WjAoH/I/pOc1abPOBoTffXfHJ0c8+zJkFG/Tdzy8FwHLSVKiY8mYZ+Eecgbdu9CoqRD0HHxPB9XW1xVU5cF6TyhLCqyMmFWWqAgyxOW8wnTyZTJdMm436ITgKbBVDV1IzG08PpPGX9zjDvcZ++rr9jfH7LfD2j7Do6605G78/gzofwayXxkH1SLID5g9CTjy0XC5vaWfL1hsdhQTUvW1Zrl7JLLV9/TiTu0BwM8z8FzYmonx66umV/NuLjJyZw+0dcjhqMhhwc9eh2flqdQ92Kw23PyCyHaZ2SaAiEdtB8TDY45OJlTzG9IFgmTaULR3PJ2XZJtZiwmp5y96hHEA0LfEug91l6Js5mSLCqSysMdDOgdP2Fv2GbQcYhcjZYCyTZjFUK8kwj+zjAWsEKA8pBej87eCSffrkg3KctkSWEbNm+WXK825OmEm7Mf0MrDJUVVTzmKXSJbIb0OtjsiHo85Hkf0Ip/QEWi5VSjzgZT5d4e5i9MQGqlDgs4++knJs3TFajlnVdYssoaqWjHL16Szcy6FRKsNwqYsD8Yc9voMj9oMB0OGwy6Dtk/kSQRbn2js40E+E2YLZK3FSoH0OujeCcPnBd9UWwe6XGRURU15nbEsp6xmJW9ERtmUZKVGRCcMW0MOxn32+iGBsw31PxRE/rEw9zNZBAqURilNe3wCtuCrZcrsZkq6KUmyK8pZxqqYM78FYz3c6JjBU0tpHbzQw/cdtBTcuXYr7sKo/wTMHdN97CYAB+UPicaWw69Tvl3MWWcls1VGXlYUq5qizChWS9LbGcvrGctFyrqsKQwEgIKPmt5Pjd9cBLzbQ4SAXTi+dawBujUmHj/h+IsvOXl2zNP9HsM4IHAkgoo6S1jPbpiev+Xy/IqLmxWzVUlVm3sQa+2u+mN5bNfl8+tmHxgWBzeMiccHjA6P2Nt/zfB6wfk8Jy0r6iYhmZ5x8fKfvBzFDA+HdAKPQdjFdRXCPpSU/qNq9kCwm1qwS8YclBsRtLv0RyNGgxmj2w1FnpDUBeVmwuzmR85+HNE93GfYDdnvB0i1TbddJbaSEeK9APkP8TM/G3cGwTZQ51RFxmZdUuPhdccM9+ccL9ZUVUm9yEjrFZvNFZcXLwj/OaTfbTMcDxDa4aCjkYJdRrndp8dI6PNh3tNnQ1OklOmMdL5gsaqpZJto/JTDrIK6RNJQNjc0y5JNuWRxe8bbVz16owHD/T08rfCftlEdj8ARCPsLVb/fHeYuPaaGJqdKb1ndvGU6WXE7byhVn/ioT7sdshcLPKch32yoqgVFWpCvJ8wuX/D6f3pEwYhQaLqtp3ieRkmFry0PBvsPgrG7MyKw2xpxuaHOZqwmV0yuJtwmhrSJcDsdesMQby/ExAZR5yTzhLSqWdcp8zwhSy64PntB4A/odj2GBy18X+MNA7QUOEJgd9nYL/mfz3Ka9ya0KanWt6yvz7i+nPDmOiVTMbo3ojMeMB6FtGSEjRVNUZAulmyKgmVWUU4yNtWSZPaai1Of7jBgcNCnFXp0AoXnKpQWaATmE3XNX1k3e4AAizUNTZlSbBYsry64Pr3gcppzm/t4gy79wYj+sEu369FyfGwgqLM12WrOcr1htkgpioLzRU6W3TC/dTk77dP9bp849hnGu05B5KKk2tqY+76QuFvO42E+DALCNhiTUaYTFldvePXyghcvFqxtjDM8pj885Oiwx6gbEroCV2lMS9A7+ppndUm2yUhnU4osI8mX5NmaLLvh5vIFL//dI+649LotPM8h9DSOI1G7VOBjTvRRMNubLRgwTYWpC8oiJV3dMrs85fz0Jd/9MOW7U4NoOxy0FftsY61t2QksCqECvLBLezBmMBqxP4rpdTw8B0QGTZ2QzC+4eP0voo5P1PZxpME1NdWgTbvl4GqNkAK1q9DcS+hxMLvAzxhsXVBlCZtkwmxyyeX5Ka9f/sCLH37k+7clb1cdOvsK2x/Rv3W57hkkHdpRQOhaHFFRlSVVXtA0BqsEaIVFAgaoqdIJ8yvBK8di6op8mZDPv+Xrr4558qRPr+MTegqURPK+Ifg0jGCbq5oG0+SU6ynJzRlXb1/x8sfXvHx5yo+nV1zMYN4I7HrKcnbGzY3ivG1RSmKVg5QgKKmylCxJ2GQFOR7Cj2n3Gvq6oDYCg0I7hiZfsLh+w1s/pC0jHOnhBz7a1WhXoIR8pzv6WJh7oAZb5RTpnGRyzs3lJedXS6ZrS607hDFoHHxnRTl/ze05BK5GuS28KCJwBK7MKNM5q8k188WGZR2iOoccPh/Rq807BXGJcnxcX6CLNYuzCbedHrf7Q6I4pBU5eFvF/ZWSuQfa1o+l0mg/IIj6xEON8Yb0Di2VESAlUggc5dHqBbQCD89RKCF31VQB0kX7bcLeIaOTNnJQcdQIGnN3vizG3HWqNaru4MsO3baP70jUrv/5IRP9iC4A2yasqbcHP1+RrxYk65xkU1HUBmN23vmuLYzE8UK8VodWFBF3QgJPoilpshXZYkGSZiRZSVEL6t1cD/nIO233xkVanzBu0xnEtCKPINQ4SiDvWvI7uEe1NB5yiru2RkPTWBq7q/3cldS2y9iWpKVACIXSCqm2kpGw25SGxtrtJgiwO/2X70+8fTMWayRCye2zpEBKcV+t4dfCvPcZuxPX3dLFT3J1+07pdPvdfefhLmi0FmvvXO8v5/p3LXrYloh3nvNBzd4Jbz4J8/9p/KX+d+ZvmD/r+Bvmzzr+hvmzjr8UzP8CfzO70z8ZSiEAAAAASUVORK5CYII=;" vertex="1" parent="1">
          <mxGeometry x="710" y="330" width="18.9" height="21.5" as="geometry" />
        </mxCell>
        <mxCell id="JMNptI0SkTSTvYcWqJ-m-22" value="" style="shape=image;verticalLabelPosition=bottom;labelBackgroundColor=default;verticalAlign=top;aspect=fixed;imageAspect=0;image=data:image/png,iVBORw0KGgoAAAANSUhEUgAAAC8AAAAnCAYAAACfdBHBAAAK8ElEQVRYhdWZaXPbSJqEnzoAkCBIEDxEiZJPzUxPT8T8/98xsTPb67Z8yLJOUiRBEvdR+wG0rLYljz3bERtdwQgGGUQxK9+3ElkJYYwx/EGH/P8G8H8Z+ssvPhfC7F4GjMEYqGneAcRjMxowwgACKSRCit1vd/PUhvrT5/uzGINBIIQARHOdAEHz/mmIex++Av8ZQQ21wdQVVV1QFBV5XlLVzYK++OvfDiEQykJpC0tpbA3CVNRlTl5U5GVF3XCzI2JHihGgdHOdrbG0RkuFlOarRXwD/I7xuqDMNyTbJcvFmtl8S5RkpGVN1fD0BWYBQiMth5YX0PFHBH6HgSexyohie8tiFXK9iIjTnLKCyhhANixLC8v1afVGBEGfUeDhOYqWBfKBBn8AvLhjA5NTxrdsr99w+vo9v7z6yPlNyDLKycqaajejuLtKoe0OLW9IcHjMwfHPHD/dQ2HhFnOSq1959+Y9/3h1wdXthm1SkFcGIzVK2zitDu7oBYOnf+VPx/CTaqMGTeXUAwQ/yjyI5iUAakyZkm3nrK4+cnYxZ7bJiMqaojJIKQELS3fo9vcZTzX0coZVjRE0bYQAYTB1RpkuWF+dc3kxZ50pipaP2wsYjCUjv8SvwSAbAj8z873gdx0tLXS7T2dwyHi65dlizmZxxfWHNfFizvkqI0oLkAopPbz2hKl1yH57xGA45nDfZz/o0G0pWk4fWR+xn2X8Kd5SzK+JTlZEaZvUOsDpTdl/cczzly95/nzCk4lH4GkctSNQ8HmTPA6++UXDmEbZHq3uHqODjDxLSZOYeBsSpRHLcMO2qMgpAUNddumnBWWtkdqm03Jw2xa2rbClB4zoJxsO9m9ZTvZYDJeIuk959DP7xy/56ecXPH0y5XAyYOi36DqiAY/4Cvi328ZIEAKpFHbHItAOjuvRbrt0OxYtx8IUFerDjPONoQCMLMiqjChLSbOKutpJplJoywHTw/UC+v0Jk8O/sP1bwKR7gPfT35k+O+TF0ZBR4NFr29iWRgmJUo+r2iPgP8lSowJqJ1/ashCmQpmMLE7Y3obkeUGSh9xmJbVJiKIFt7NLrq+uubieEvTaeLaLMCUmTciTkryw0f4Rw78e0RoeMP7zMZPJgP3AxWtrtGzunuZzI/CVTn6T+YZ+zF3JFKgObv+A8dOU43BNfHtLEqesVinFbcK63LJZXHL14TUnfp/uYIDtaByrz8hKYXPN4mrJ5U1ObA3x/rzPaDzicL9P0GvTsSVaiGaj3gf+vcyLB1bYTCSQykK0enSCQ/afrcjCW9brLYvVhsLcUIUVUbYinJ9x/t7H7fdp2yW2OCBsl7SiFduoJKaD3R8zOJoyHvYY9mxcW2Ht1M2YhunHoHwn8/ewA8YIhLRRTp/e5BnP/paQpAnxJqSsC5J3S6pNQhbNmJ2/QUuNqtZU+RMOfZdACuxOgNUfE0z2OBz38D2HtiVQd4ry/T7xu8GD2VVFI3SbVm8PScHTaM02XLDJChZxSVGtudluSRbnXANSpRgTs50ecrQ34bDXZTAcMhr69D2bjqPQAhA7vyC+vG//LuCbBRizu4HYXSz/iOHTlL8UMVFWsAoT8qwkzSNW6ZLtsuRC5JSmpqpdnOAlR17A3jhg5HdwLYkWDdPiPzDm3w/+rgFrBBIhbaTTwxs9gTrh5WrD4mbBJkpZRzlZkbDOQ9ZLiVBtPP8Jk2cFSalQtoXd0mgBUghqYx5Uk98P/OdV0FRAYNCodoA7OebgeMtPi1vCTcx8GRGlBcm2JMtisjBkM1+wulmyXm2J0sbT1Fo86Fm+d/zwYaSxKo1XEUgQbaz2CH98xOGLlzx/ccSTScCo79JWAkjJkhXr+SWzD6d8PL3g41XIfJ1SVHWjhp826g8e6v4D5j+NnY1AYIyD5fbxJ4eMDg+ZTk85m63wFglxUVBWa9a3Z5y/+Rf9YY/hwQjPdRh4IyxLIWrTqM13b9UfBH837UO9aQzGKIRq4bg+/nDEcLhgPIvJ8jVhnpPHc5azd5y9HxH8csAw6DAZe0it6UqD0JIvROf3A//4KDFVSh7HRGFGUTvY/QmjvRVPlhFlUVIuI9ZlRJxccn3+mpN/DQgGPQbTPYTl8KQr6arGs5s7X/A7gv9tyCAQwmBMTZ1H5NGSbbhiua4ohUdn7xlHWYGqC6QoyauCKszYFGvC2wsu377iZLTHcP+QttJ4z7toJWlrgbU7N5svPM1Dhfhx5g1NbesSU+cU0YLt7JzFbMViXZLpAf3pgG63xX4PHKskiWPyoiDblhTbOaub93z8dQ+/e0BXK4beUxxbo1yFlCCMQQrxbwvwA+AFxhjEDniVR+RJSDi7Zn45Z7GuSEQHu9vFD1xapUvVq6mLlNVyTZKXxMWG2zQi3Vxz/fEtrjtmEDhM9l3aLY2jXLRs9N/sTKG4iyt+2FXex24QQF1XmCIl28yJ5pfcXMy4uIlIlY8ejOmOh4zHbbrSo+5LqiJlE66I04wwysmLhE21ZrM45fLU5e24zWjap+PaeC2FpQWuJZCfTPE3du4PqU1V55T5lmyzYHF5wc3ZJTfLkjDv0BoOGAxHDEd9+j0HT7cwLUGZJCSbDVGcE65j8qKkWGUk6YzVvMXZqU//1Yhu18b3LBwrQPVaKKu5Cd25zP8cfBODmDImDW9YXp3y7s0Vb95uiERAe2+fYDDlYH/I0G/R1hJba2opCKY5L+qcLImJF3PiOGKZhmTxljS95ubyDSe/+LiuTbfr4jgWbkvjWA6fsonHuv/xxEzQBE9VSV1mpPGKbXjF9Yc3vDs54dWbkJMrjTVs8WxgM9U2lhbYSiClwEiNVC5OZ0h/OGXvYMLhtM/oQ5uWDjHUlMWS5ewUqS1sW6JtCXWJFs84mvgEHRtHq12A8NveF48zb6CqMaagSiPy7S2Lm1MuTn/lf/75T/7xX7/y3xeC82LK/suA3vMt2yRmu9G4FjgtmxYKuUvWDBrbbtPpdWh32yhLISiBiiq9Zn5eUJU5UZKRxTnUkiw3vDjyCTwHS0m0aKKQ+zvgwdDJGKCuqIuYdD0jvH7Px7O3nLw+4fW7M95f3DJbabaiwya8YnbxmvNOjqf2Kaoxo4EPrsEWOVW0ZruYswo3rDJJoTq0/QFBnZDVUFagFMhqQ7S84PrdkDedgLbQtC0NQuF7FkIZtPltAvI1+N3SzE4O4/CS2fkJZ+/ec/Lhlsu1oG4N8ANBmxqnvGT5LuNtGVJkKUklQbdQyiDllnh1xfzja84+XHI6r4hFn8GBS3tQ3Z3OpJBIy8ZqCXSyZPbqjI9WB9/3sR2HVltjWQK1q+Q3mGeX9AJSI3ULq92jE+wznHrIXspeXlPWAiMkwki0svCGXfyui+s0va8ESCFR2kG3+3jjJ0zKPnqY8aQ0lEbwOSzcHUikRlU+LTlgL+jQ2UmnMA/bX/Hlw4XGmdZQNxs1T9ZE6yXhJmYdFaRlTW0+t5fBIIzEark4Xp9ut4ff7eA6EkvklOmaaHXLehOzikuysqIyuxj73n8KUTdn5NpGmQ4dv0dv3MPrtnA7FpaSO+kUdwngA+DNTnEM1DV1WVJWGXlRU1Y74PfPmaamrkEohVQ2lqWxLI2WAiFq6iqnLHKKsqYszb0t16hSXZt7XWygFphaoyyF5dhoS6L1Luc3n9ONR8Hf7x/z6bvdA4avT2yfU3aEvGMGaMwbu0qaTwnEv3ft5tNRR+7qc/+Cb4H/I40/9DOpPzT4/wX4D2XRodOfqwAAAABJRU5ErkJggg==;" vertex="1" parent="1">
          <mxGeometry x="100" y="334.5" width="15.07" height="12.5" as="geometry" />
        </mxCell>
        <mxCell id="JMNptI0SkTSTvYcWqJ-m-23" value="" style="endArrow=classic;html=1;rounded=0;fontFamily=Times New Roman;" edge="1" parent="1">
          <mxGeometry width="50" height="50" relative="1" as="geometry">
            <mxPoint x="695" y="349.5" as="sourcePoint" />
            <mxPoint x="745" y="349.5" as="targetPoint" />
          </mxGeometry>
        </mxCell>
        <mxCell id="JMNptI0SkTSTvYcWqJ-m-24" value="" style="endArrow=classic;html=1;rounded=0;fontFamily=Times New Roman;entryX=0;entryY=0.5;entryDx=0;entryDy=0;" edge="1" parent="1" target="JMNptI0SkTSTvYcWqJ-m-2">
          <mxGeometry width="50" height="50" relative="1" as="geometry">
            <mxPoint x="210" y="350" as="sourcePoint" />
            <mxPoint x="219" y="279" as="targetPoint" />
          </mxGeometry>
        </mxCell>
        <mxCell id="JMNptI0SkTSTvYcWqJ-m-29" value="" style="endArrow=classic;html=1;rounded=0;fontFamily=Times New Roman;exitX=1;exitY=0.5;exitDx=0;exitDy=0;entryX=0;entryY=0.5;entryDx=0;entryDy=0;" edge="1" parent="1" source="JMNptI0SkTSTvYcWqJ-m-2" target="JMNptI0SkTSTvYcWqJ-m-3">
          <mxGeometry width="50" height="50" relative="1" as="geometry">
            <mxPoint x="350" y="420" as="sourcePoint" />
            <mxPoint x="400" y="370" as="targetPoint" />
          </mxGeometry>
        </mxCell>
        <mxCell id="JMNptI0SkTSTvYcWqJ-m-30" value="" style="endArrow=classic;html=1;rounded=0;fontFamily=Times New Roman;entryX=0;entryY=0.5;entryDx=0;entryDy=0;" edge="1" parent="1" target="JMNptI0SkTSTvYcWqJ-m-4">
          <mxGeometry width="50" height="50" relative="1" as="geometry">
            <mxPoint x="400" y="314" as="sourcePoint" />
            <mxPoint x="370" y="324" as="targetPoint" />
          </mxGeometry>
        </mxCell>
        <mxCell id="JMNptI0SkTSTvYcWqJ-m-34" value="" style="endArrow=classic;html=1;rounded=0;fontFamily=Times New Roman;entryX=0;entryY=0.5;entryDx=0;entryDy=0;exitX=1;exitY=0.5;exitDx=0;exitDy=0;" edge="1" parent="1" source="JMNptI0SkTSTvYcWqJ-m-6" target="JMNptI0SkTSTvYcWqJ-m-8">
          <mxGeometry width="50" height="50" relative="1" as="geometry">
            <mxPoint x="530" y="610" as="sourcePoint" />
            <mxPoint x="580" y="560" as="targetPoint" />
          </mxGeometry>
        </mxCell>
      </root>
    </mxGraphModel>
  </diagram>
</mxfile>
